<?xml version="1.0" encoding="utf-8"?>
<!-- Generator: Adobe Illustrator 25.4.1, SVG Export Plug-In . SVG Version: 6.00 Build 0)  -->
<svg version="1.1" id="Calque_1" xmlns="http://www.w3.org/2000/svg" xmlns:xlink="http://www.w3.org/1999/xlink" x="0px" y="0px"
	 viewBox="0 0 901.23 165.08" style="enable-background:new 0 0 901.23 165.08;" xml:space="preserve">
<style type="text/css">
	.st0{fill:#5E60CE;}
	.st1{fill:#48BFE3;}
	.st2{fill:#64DFDF;}
	.st3{fill:url(#SVGID_1_);}
	.st4{fill:url(#SVGID_00000106841625615938510520000015328087401259928230_);}
	.st5{fill:#0E1D47;}
	.st6{fill:url(#SVGID_00000146464258348800144820000007156778129150751146_);}
	.st7{fill:#273270;}
</style>
<circle class="st0" cx="0" cy="-184.5" r="23.57"/>
<circle class="st1" cx="66.5" cy="-184.5" r="23.57"/>
<circle class="st2" cx="133" cy="-184.5" r="23.57"/>
<g>
	<g>
		<path class="st0" d="M116.28,57.27c0,11.11-3.16,21.47-8.64,30.24L87.79,67.67C80,59.88,68.85,57.51,59.01,60.58
			c-4.28,1.33-8.32,3.7-11.72,7.09c-11.18,11.18-11.18,29.31,0,40.5l11.72,11.72v16.57c0,7.9-3.21,15.07-8.39,20.24
			c-5.18,5.18-12.33,8.39-20.24,8.39c-15.82,0-28.64-12.82-28.64-28.63V58.39c0-0.19,0-0.38,0.01-0.56v-0.18
			c-0.01-0.13-0.01-0.26-0.01-0.38C1.74,25.64,27.38,0,59.01,0S116.28,25.64,116.28,57.27z"/>
		<linearGradient id="SVGID_1_" gradientUnits="userSpaceOnUse" x1="38.9054" y1="108.0599" x2="256.9945" y2="108.0599">
			<stop  offset="2.131116e-07" style="stop-color:#5E60CE"/>
			<stop  offset="0.5" style="stop-color:#48BFE3"/>
			<stop  offset="1" style="stop-color:#64DFDF"/>
		</linearGradient>
		<path class="st3" d="M248.61,108.25l-40.2,40.2c-4.73,4.72-10.69,7.46-16.85,8.19c-1.13,0.14-2.26,0.2-3.39,0.2l-3.43-0.2
			c-6.16-0.73-12.13-3.46-16.85-8.19l-19.96-19.96l-19.88,19.88c-3.26,3.26-7.1,5.57-11.18,6.92c-0.37,0.12-0.74,0.23-1.11,0.35
			c-0.75,0.23-1.51,0.41-2.27,0.56c-0.38,0.08-0.76,0.14-1.14,0.21c-0.38,0.06-0.77,0.11-1.15,0.16c-0.28,0.04-0.56,0.06-0.85,0.09
			c-0.29,0.02-0.56,0.05-0.85,0.06c-0.28,0.02-0.56,0.03-0.85,0.04c-0.29,0.01-0.56,0.02-0.85,0.02c-1.15,0-2.29-0.07-3.43-0.2
			l-0.83-0.11c-0.17-0.03-0.33-0.05-0.5-0.08l-0.71-0.14c-0.2-0.04-0.39-0.08-0.58-0.11l-0.77-0.18c-0.23-0.05-0.44-0.11-0.67-0.17
			c-0.22-0.06-0.44-0.12-0.67-0.19c-0.22-0.07-0.44-0.14-0.66-0.2c-0.26-0.08-0.52-0.17-0.78-0.26c-3.9-1.37-7.56-3.62-10.68-6.74
			l-28.49-28.49l-11.72-11.72c-11.18-11.18-11.18-29.31,0-40.5c3.39-3.39,7.44-5.76,11.72-7.09c9.84-3.06,20.99-0.7,28.78,7.09
			l19.98,19.98l19.9-19.89c11.18-11.18,29.31-11.18,40.5,0l19.98,19.98l19.97-19.98c11.18-11.18,29.31-11.18,40.5,0
			C259.79,78.93,259.79,97.06,248.61,108.25z"/>
	</g>
	
		<radialGradient id="SVGID_00000061465028867711902810000014837356262959938741_" cx="166.8772" cy="42.6276" r="67.727" fx="196.9854" fy="43.5693" gradientUnits="userSpaceOnUse">
		<stop  offset="0.5" style="stop-color:#48BFE3"/>
		<stop  offset="1" style="stop-color:#5E60CE"/>
		<stop  offset="1" style="stop-color:#64DFDF"/>
	</radialGradient>
	<circle style="fill:url(#SVGID_00000061465028867711902810000014837356262959938741_);" cx="149.08" cy="28.79" r="21.2"/>
	<g>
		<path class="st5" d="M306.91,138.14V49.75c0-1.21,0.39-2.21,1.18-3c0.79-0.79,1.77-1.18,2.94-1.18h13.02
			c1.17,0,2.15,0.39,2.94,1.18c0.79,0.79,1.18,1.79,1.18,3v2.02c7.11-5.04,15.36-7.56,24.76-7.56c9.4,0,17.25,3.32,23.55,9.95
			c6.3,6.64,9.45,16.13,9.45,28.47s-3.26,21.81-9.78,28.37c-6.52,6.57-15.32,9.85-26.38,9.85c-5.71,0-12.21-1.15-19.5-3.44v20.71
			c0,1.21-0.39,2.21-1.18,3c-0.79,0.79-1.77,1.18-2.94,1.18h-15.11c-1.17,0-2.15-0.39-2.94-1.18
			C307.3,140.35,306.91,139.35,306.91,138.14z M330.25,101.84c5.8,1.84,10.68,2.77,14.64,2.77c6.16,0,10.54-1.75,13.12-5.26
			c2.59-3.51,3.88-9.11,3.88-16.8s-1.23-13.28-3.68-16.77c-2.45-3.49-6.12-5.23-11-5.23c-4.88,0-10.54,2.02-16.97,6.07V101.84z"/>
		<path class="st5" d="M404.61,111.01c-6.93-6.57-10.39-16.03-10.39-28.37s3.49-21.84,10.46-28.47c6.97-6.63,16.64-9.95,29.01-9.95
			c12.37,0,22.02,3.23,28.95,9.68c6.93,6.46,10.39,15.71,10.39,27.77v3.85c0,1.21-0.39,2.22-1.18,3c-0.79,0.79-1.79,1.18-3,1.18
			h-50.81c0.45,5.53,2.03,9.56,4.76,12.08c2.72,2.52,7.07,3.78,13.06,3.78c5.98,0,10.08-1.35,12.28-4.05
			c2.2-2.7,4.93-4.07,8.16-4.12h10.05c1.21,0,2.21,0.39,3,1.18c0.79,0.79,1.18,1.79,1.18,3c0,12.91-12.3,19.34-36.91,19.3
			C421.21,120.87,411.54,117.58,404.61,111.01z M417.9,75.45h31.38c-0.45-10.62-5.66-15.92-15.62-15.92
			C423.69,59.53,418.44,64.84,417.9,75.45z"/>
		<path class="st5" d="M485.45,115.4V26.94c0-1.21,0.39-2.21,1.18-3c0.79-0.79,1.76-1.18,2.94-1.18h15.11
			c1.17,0,2.15,0.39,2.94,1.18c0.79,0.79,1.18,1.79,1.18,3v88.46c0,1.17-0.39,2.15-1.18,2.94c-0.79,0.79-1.77,1.18-2.94,1.18h-15.11
			c-1.17,0-2.15-0.39-2.94-1.18C485.84,117.55,485.45,116.57,485.45,115.4z"/>
		<path class="st5" d="M531.6,111.01c-6.93-6.57-10.39-16.03-10.39-28.37s3.49-21.84,10.46-28.47c6.97-6.63,16.64-9.95,29.01-9.95
			c12.37,0,22.02,3.23,28.95,9.68c6.93,6.46,10.39,15.71,10.39,27.77v3.85c0,1.21-0.39,2.22-1.18,3c-0.79,0.79-1.79,1.18-3,1.18
			h-50.81c0.45,5.53,2.03,9.56,4.76,12.08c2.72,2.52,7.07,3.78,13.06,3.78c5.98,0,10.08-1.35,12.28-4.05
			c2.2-2.7,4.93-4.07,8.16-4.12h10.05c1.21,0,2.21,0.39,3,1.18c0.79,0.79,1.18,1.79,1.18,3c0,12.91-12.3,19.34-36.91,19.3
			C548.2,120.87,538.53,117.58,531.6,111.01z M544.89,75.45h31.38c-0.45-10.62-5.66-15.92-15.62-15.92
			C550.68,59.53,545.43,64.84,544.89,75.45z"/>
		<path class="st5" d="M605.42,51.5c-0.36-1.17-0.56-2.14-0.61-2.9c0-1.98,1.12-2.99,3.37-3.04h12.55c2.11,0,4,0.53,5.67,1.59
			c1.66,1.06,2.81,2.51,3.44,4.35l11.07,36.37l10.93-36.37c1.21-3.96,3.78-5.94,7.69-5.94h11.94c3.96,0,6.52,1.98,7.69,5.94
			l10.93,36.37l11.07-36.37c0.63-1.84,1.78-3.29,3.44-4.35c1.66-1.06,3.55-1.59,5.67-1.59h12.55c2.2,0,3.33,1.01,3.37,3.04
			c0,0.81-0.2,1.78-0.61,2.9l-20.45,62.08c-0.63,1.84-1.75,3.3-3.37,4.35c-1.62,1.06-3.35,1.59-5.2,1.59h-9.51
			c-1.85,0-3.6-0.55-5.26-1.65c-1.66-1.1-2.77-2.53-3.31-4.28l-12.96-40.22l-13.02,40.22c-0.54,1.75-1.64,3.18-3.31,4.28
			c-1.66,1.1-3.42,1.65-5.26,1.65h-9.51c-1.84,0-3.58-0.53-5.2-1.59c-1.62-1.06-2.74-2.51-3.37-4.35L605.42,51.5z"/>
		<path class="st5" d="M741.38,111.01c-6.93-6.57-10.39-16.03-10.39-28.37s3.49-21.84,10.46-28.47c6.97-6.63,16.64-9.95,29.01-9.95
			c12.37,0,22.02,3.23,28.95,9.68c6.93,6.46,10.39,15.71,10.39,27.77v3.85c0,1.21-0.39,2.22-1.18,3c-0.79,0.79-1.79,1.18-3,1.18
			h-50.81c0.45,5.53,2.03,9.56,4.76,12.08c2.72,2.52,7.07,3.78,13.06,3.78c5.98,0,10.08-1.35,12.28-4.05
			c2.2-2.7,4.93-4.07,8.16-4.12h10.05c1.21,0,2.21,0.39,3,1.18c0.79,0.79,1.18,1.79,1.18,3c0,12.91-12.3,19.34-36.91,19.3
			C757.98,120.87,748.31,117.58,741.38,111.01z M754.68,75.45h31.38c-0.45-10.62-5.66-15.92-15.62-15.92
			C760.47,59.53,755.22,64.84,754.68,75.45z"/>
		<path class="st5" d="M822.22,26.94c0-1.21,0.39-2.21,1.18-3c0.79-0.79,1.76-1.18,2.94-1.18h15.11c1.17,0,2.15,0.39,2.94,1.18
			c0.79,0.79,1.18,1.79,1.18,3v20.72c7.29-2.29,13.79-3.44,19.5-3.44c11.07,0,19.86,3.3,26.38,9.89c6.52,6.59,9.78,16.09,9.78,28.51
			c0,25.51-14.28,38.26-42.85,38.26c-6.52,0-13.28-0.73-20.28-2.19c-7-1.46-12.29-3.25-15.89-5.36V26.94z M845.57,63.24v39.81
			c3.87,1.04,8.79,1.55,14.78,1.55c5.98,0,10.29-1.73,12.92-5.2c2.63-3.46,3.95-9.06,3.95-16.8c0-7.74-1.29-13.35-3.88-16.84
			c-2.59-3.49-6.96-5.23-13.12-5.23C856.25,60.54,851.37,61.44,845.57,63.24z"/>
	</g>
</g>
<linearGradient id="SVGID_00000096768642773408417640000014921505467206635145_" gradientUnits="userSpaceOnUse" x1="175.9362" y1="-184.5024" x2="223.0752" y2="-184.5024">
	<stop  offset="2.131116e-07" style="stop-color:#5E60CE"/>
	<stop  offset="0.5" style="stop-color:#48BFE3"/>
	<stop  offset="1" style="stop-color:#64DFDF"/>
</linearGradient>
<circle style="fill:url(#SVGID_00000096768642773408417640000014921505467206635145_);" cx="199.51" cy="-184.5" r="23.57"/>
<circle class="st7" cx="266.32" cy="-184.5" r="23.88"/>
</svg>