<svg width="509" height="340" viewBox="0 0 509 340" fill="none" xmlns="http://www.w3.org/2000/svg">
<path d="M464.391 208.325L463.461 206.788C455.616 193.834 441.432 186.028 426.474 186.973C424.55 187.096 422.638 187.36 420.753 187.762C407.18 190.679 395.323 200.981 390.417 214.18C387.532 221.938 386.725 230.874 381.255 237.034C374.129 245.052 362.035 245.303 351.393 244.97C340.752 244.637 328.658 244.922 321.573 252.967C317.134 258.006 315.722 265.207 316.082 271.925C317.026 289.796 329.459 305.776 345.265 313.718C361.071 321.66 379.68 322.374 396.979 318.879C421.214 313.99 444.255 300.519 458.114 279.786C471.972 259.053 475.474 230.738 464.391 208.325Z" fill="#F5F5F5"/>
<path d="M23.8755 131.532L24.8799 132.831C33.3361 143.779 47.0248 149.403 60.5031 146.996C62.2386 146.684 63.9489 146.245 65.6203 145.683C77.6666 141.603 87.3376 131.05 90.4391 118.565C92.2579 111.221 92.0679 103.02 96.3978 96.866C102.044 88.8488 112.998 87.346 122.683 86.564C132.367 85.782 143.334 84.2588 148.94 76.2144C152.449 71.1824 153.012 64.5252 151.967 58.4324C149.252 42.3028 136.358 29.0836 121.162 23.5076C105.967 17.9316 89.0207 19.2168 73.6557 24.1876C52.1759 31.1304 32.6371 45.7232 22.1992 66.0076C11.7613 86.292 11.5373 112.336 23.8755 131.532Z" fill="#F5F5F5"/>
<path d="M458.765 165.213C472.667 165.213 483.937 153.921 483.937 139.992C483.937 126.062 472.667 114.77 458.765 114.77C444.863 114.77 433.593 126.062 433.593 139.992C433.593 153.921 444.863 165.213 458.765 165.213Z" fill="#F5F5F5"/>
<path d="M419.463 30.1852H76.2075V277.76H419.463V30.1852Z" fill="white"/>
<path d="M419.036 30.1852H75.7799V48.484H419.036V30.1852Z" fill="#E0E0E0"/>
<path d="M87.9348 39.6644C87.9097 40.1035 87.7566 40.5255 87.4947 40.8784C87.2327 41.2313 86.8733 41.4996 86.4609 41.6501C86.0485 41.8006 85.6011 41.8268 85.174 41.7253C84.7469 41.6239 84.3588 41.3993 84.0577 41.0793C83.7566 40.7593 83.5556 40.3579 83.4797 39.9248C83.4037 39.4916 83.4561 39.0457 83.6302 38.642C83.8044 38.2383 84.0928 37.8946 84.4598 37.6533C84.8268 37.4121 85.2563 37.2838 85.6952 37.2844C85.9983 37.2932 86.2967 37.3618 86.5733 37.4862C86.8499 37.6106 87.0993 37.7884 87.3073 38.0094C87.5153 38.2304 87.6778 38.4904 87.7854 38.7743C87.8931 39.0583 87.9439 39.3608 87.9348 39.6644Z" fill="#263238"/>
<path d="M96.2689 39.6644C96.2437 40.1032 96.0908 40.525 95.8292 40.8778C95.5676 41.2305 95.2086 41.4988 94.7965 41.6495C94.3845 41.8003 93.9374 41.8268 93.5105 41.7259C93.0836 41.625 92.6954 41.4011 92.3941 41.0818C92.0927 40.7625 91.8912 40.3617 91.8144 39.929C91.7377 39.4962 91.7891 39.0505 91.9622 38.6467C92.1354 38.2429 92.4228 37.8987 92.7889 37.6566C93.155 37.4145 93.5838 37.2851 94.0225 37.2844C94.3261 37.2923 94.6252 37.3603 94.9026 37.4843C95.18 37.6083 95.4302 37.7859 95.6389 38.007C95.8476 38.2282 96.0107 38.4884 96.1188 38.7728C96.2269 39.0572 96.2779 39.3602 96.2689 39.6644Z" fill="#263238"/>
<path d="M104.596 39.6644C104.571 40.1035 104.418 40.5255 104.156 40.8784C103.894 41.2313 103.535 41.4996 103.122 41.6501C102.71 41.8006 102.262 41.8268 101.835 41.7253C101.408 41.6239 101.02 41.3993 100.719 41.0793C100.418 40.7593 100.217 40.3579 100.141 39.9248C100.065 39.4916 100.117 39.0457 100.292 38.642C100.466 38.2383 100.754 37.8946 101.121 37.6533C101.488 37.4121 101.918 37.2838 102.357 37.2844C102.66 37.2923 102.959 37.3603 103.236 37.4844C103.513 37.6085 103.762 37.7862 103.971 38.0074C104.179 38.2287 104.341 38.489 104.449 38.7733C104.556 39.0577 104.606 39.3606 104.596 39.6644Z" fill="#263238"/>
<path d="M223.777 68.1904C223.777 68.3196 216.277 68.4216 207.034 68.4216C197.791 68.4216 190.291 68.3196 190.291 68.1904C190.291 68.0612 197.757 67.9524 207.034 67.9524C216.311 67.9524 223.777 68.0544 223.777 68.1904Z" fill="#263238"/>
<path d="M268.318 68.1904C268.318 68.3196 260.818 68.4216 251.575 68.4216C242.332 68.4216 234.832 68.3196 234.832 68.1904C234.832 68.0612 242.298 67.9524 251.575 67.9524C260.852 67.9524 268.318 68.0544 268.318 68.1904Z" fill="#263238"/>
<path d="M312.865 68.1904C312.865 68.3196 305.366 68.4216 296.123 68.4216C286.879 68.4216 279.38 68.3196 279.38 68.1904C279.38 68.0612 286.845 67.9524 296.123 67.9524C305.4 67.9524 312.865 68.0544 312.865 68.1904Z" fill="#263238"/>
<path d="M357.793 68.1904C357.793 68.3196 350.328 68.4216 341.05 68.4216C331.773 68.4216 324.308 68.3196 324.308 68.1904C324.308 68.0612 331.807 67.9524 341.05 67.9524C350.294 67.9524 357.793 68.0544 357.793 68.1904Z" fill="#263238"/>
<path d="M396.83 73.8412C396.83 73.8412 397.115 73.8412 397.631 73.6984C398.389 73.4928 399.064 73.0526 399.558 72.4404C399.921 71.9931 400.181 71.4705 400.318 70.9104C400.452 70.2231 400.493 69.521 400.44 68.8228C400.345 67.3336 400.773 65.4228 399.504 63.9812C399.208 63.6256 398.844 63.3324 398.434 63.1188C398.024 62.9052 397.576 62.7753 397.115 62.7368C396.158 62.7368 395.079 62.7368 394.041 62.7368H387.254H371.645C370.985 62.7498 370.342 62.9478 369.789 63.3084C369.236 63.669 368.795 64.1777 368.516 64.7768C368.229 65.3882 368.094 66.0602 368.122 66.7352V68.8364C368.079 69.5008 368.12 70.168 368.244 70.822C368.399 71.433 368.702 71.9961 369.127 72.4608C369.515 72.8993 370.004 73.2355 370.552 73.44C371.123 73.5899 371.714 73.6473 372.303 73.61L385.055 73.6576L393.654 73.7324L395.995 73.78H396.599C396.742 73.78 396.81 73.78 396.81 73.78C396.74 73.7891 396.669 73.7891 396.599 73.78H395.995L393.654 73.8276L385.055 73.9024L372.303 73.95C371.673 73.9972 371.04 73.9375 370.43 73.7732C369.794 73.5606 369.222 73.1911 368.767 72.6988C368.289 72.1816 367.949 71.5527 367.776 70.8696C367.687 70.5185 367.641 70.1576 367.64 69.7952C367.64 69.4484 367.64 69.1152 367.64 68.7616V66.7624C367.605 66.0146 367.755 65.2696 368.075 64.5932C368.388 63.9185 368.885 63.3458 369.507 62.9405C370.13 62.5353 370.854 62.3139 371.597 62.3016H387.206H393.993C395.065 62.3016 396.083 62.3016 397.095 62.3016C397.595 62.3465 398.081 62.4897 398.526 62.7231C398.971 62.9565 399.365 63.2754 399.687 63.6616C400.295 64.3944 400.635 65.3132 400.651 66.266C400.651 67.1296 400.651 67.9524 400.651 68.7208C400.695 69.4412 400.64 70.1642 400.488 70.8696C400.333 71.4564 400.048 72.0004 399.653 72.4608C399.128 73.0827 398.412 73.5131 397.617 73.6848C397.364 73.7775 397.099 73.8302 396.83 73.8412Z" fill="#263238"/>
<path d="M200.356 132.94H108.084C104.857 132.94 102.241 135.561 102.241 138.795V148.444C102.241 151.678 104.857 154.299 108.084 154.299H200.356C203.583 154.299 206.199 151.678 206.199 148.444V138.795C206.199 135.561 203.583 132.94 200.356 132.94Z" fill="#E0E0E0"/>
<path d="M75.7799 30.1852L419.043 30.0152H419.219V30.1852C419.219 104.89 419.219 189.033 419.219 277.705V277.93H419.029L75.7664 277.896H75.6103V277.739C75.7053 127.459 75.7664 31.45 75.7664 30.158C75.7664 31.45 75.8342 127.473 75.9224 277.739L75.7664 277.583L419.029 277.542L418.839 277.739V277.705C418.839 189.006 418.839 104.863 418.839 30.1852L419.016 30.362L75.7799 30.1852Z" fill="#263238"/>
<path d="M389.765 177.303C389.765 177.303 389.765 176.868 389.765 176.038C389.765 175.209 389.765 173.998 389.765 172.38C389.765 169.164 389.765 164.431 389.765 158.358C389.765 146.22 389.724 128.717 389.69 107.209L389.826 107.345L266.716 107.386L266.892 107.209C266.892 132.002 266.892 155.706 266.892 177.296L266.723 177.133L355.228 177.215L380.637 177.262H387.424H389.175H389.772H387.464H380.725L355.35 177.31L266.716 177.48H266.553V177.31C266.553 155.72 266.553 132.015 266.553 107.222V107.046H266.716L389.738 107.086H389.874V107.222C389.874 128.765 389.819 146.302 389.806 158.454C389.806 164.519 389.806 169.232 389.806 172.441C389.806 174.039 389.806 175.256 389.806 176.079C389.806 176.902 389.765 177.303 389.765 177.303Z" fill="#5E60CE"/>
<path d="M387.105 107.114L386.806 107.318L385.924 107.882L382.53 110.017C379.565 111.86 375.255 114.512 369.914 117.749C359.239 124.243 344.396 133.069 327.837 142.555C311.277 152.041 296.17 160.378 285.183 166.355C279.685 169.334 275.227 171.72 272.139 173.346L268.576 175.216L267.646 175.698C267.542 175.754 267.436 175.804 267.327 175.848C267.425 175.782 267.527 175.72 267.632 175.664L268.542 175.154L272.071 173.223L285.04 166.11C296.001 160.106 311.094 151.728 327.64 142.242C344.186 132.756 359.035 123.971 369.717 117.538L382.395 109.895L385.842 107.821L386.745 107.29C386.996 107.168 387.105 107.114 387.105 107.114Z" fill="#5E60CE"/>
<path d="M388.347 177.303C388.299 177.385 361.302 161.894 328.061 142.712C294.82 123.529 267.904 107.896 267.951 107.814C267.999 107.732 294.989 123.216 328.237 142.406C361.485 161.595 388.394 177.215 388.347 177.303Z" fill="#5E60CE"/>
<path d="M387.261 212.16C387.261 212.296 360.372 212.405 327.219 212.405C294.066 212.405 267.164 212.296 267.164 212.16C267.164 212.024 294.046 211.908 327.219 211.908C360.392 211.908 387.261 212.017 387.261 212.16Z" fill="#263238"/>
<path d="M387.261 219.45C387.261 219.586 360.372 219.694 327.219 219.694C294.066 219.694 267.164 219.586 267.164 219.45C267.164 219.314 294.046 219.198 327.219 219.198C360.392 219.198 387.261 219.314 387.261 219.45Z" fill="#263238"/>
<path d="M320.731 237.606C320.731 237.735 308.943 237.837 294.412 237.837C279.882 237.837 268.087 237.735 268.087 237.606C268.087 237.476 279.869 237.381 294.412 237.381C308.956 237.381 320.731 237.483 320.731 237.606Z" fill="#263238"/>
<path d="M372.038 228.813C372.038 228.936 348.767 229.038 320.066 229.038C291.365 229.038 268.087 228.936 268.087 228.813C268.087 228.691 291.352 228.582 320.066 228.582C348.78 228.582 372.038 228.684 372.038 228.813Z" fill="#263238"/>
<path d="M403.08 251.097C403.08 251.097 403.08 250.757 403.08 250.111C403.08 249.465 403.08 248.506 403.08 247.248C403.08 244.725 403.08 241.006 403.08 236.205C403.08 226.617 403.047 212.69 403.019 195.337L403.142 195.452L253.665 195.514L253.842 195.337C253.842 214.798 253.842 233.628 253.842 251.097L253.672 250.927L360.772 251.002L391.916 251.049H400.257H402.415H403.155H402.436H400.298H391.991L360.888 251.097L253.658 251.178H253.489V251.008C253.489 233.539 253.489 214.71 253.489 195.248V195.16H253.672L403.148 195.214H403.264V195.337C403.264 212.718 403.216 226.671 403.203 236.28C403.203 241.04 403.203 244.773 403.203 247.289C403.203 248.54 403.203 249.492 403.203 250.138C403.203 250.784 403.08 251.097 403.08 251.097Z" fill="#263238"/>
<path d="M107.691 76.0716C111.893 76.0716 115.299 72.811 115.299 68.7888C115.299 64.7666 111.893 61.506 107.691 61.506C103.489 61.506 100.083 64.7666 100.083 68.7888C100.083 72.811 103.489 76.0716 107.691 76.0716Z" fill="#5E60CE"/>
<path d="M105.051 157.005H51.2936V194.48H105.051V157.005Z" fill="#455A64"/>
<path d="M105.044 157.005C105.105 157.087 93.1337 165.614 78.3185 176.045C63.5032 186.476 51.4365 194.888 51.3754 194.806C51.3143 194.725 63.286 186.198 78.1148 175.766C92.9437 165.335 104.99 156.924 105.044 157.005Z" fill="#263238"/>
<path d="M105.044 194.48L104.902 194.398L104.488 194.126L102.927 193.059L97.2326 189.04L78.5014 175.773L59.838 162.452L54.2051 158.372L52.6849 157.243C52.522 157.128 52.3931 157.026 52.2913 156.944L52.1623 156.835C52.1623 156.835 52.2166 156.835 52.3116 156.917L52.7256 157.189L54.2865 158.256L59.9806 162.241L78.7253 175.515L97.3887 188.863L103.022 192.943L104.542 194.065L104.935 194.364C105.01 194.432 105.051 194.48 105.044 194.48Z" fill="#263238"/>
<path d="M238.96 239.906H95.8499V321.391H238.96V239.906Z" fill="#FAFAFA"/>
<path d="M238.965 321.388C238.965 321.388 238.965 320.885 238.965 319.926C238.965 318.968 238.965 317.533 238.965 315.67C238.965 311.93 238.965 306.435 238.931 299.35C238.931 285.24 238.891 264.887 238.863 239.877L238.999 240.013L95.8956 240.054L96.072 239.877C96.072 268.702 96.072 296.262 96.072 321.361L95.9092 321.198L198.863 321.273L228.419 321.32H236.298H238.334H239.013H238.334H236.298H228.46L198.938 321.361L95.8752 321.443H95.692V321.28C95.692 296.181 95.692 268.62 95.692 239.795V239.618H95.882L238.986 239.659H239.121V239.795C239.087 264.84 239.067 285.226 239.047 299.35C239.047 306.401 239.047 311.882 239.013 315.615C239.013 317.472 239.013 318.886 239.013 319.845C239.013 320.804 238.965 321.388 238.965 321.388Z" fill="#263238"/>
<path d="M153.915 253.198C153.915 253.293 144.19 253.375 132.197 253.375C120.205 253.375 110.48 253.293 110.48 253.198C110.48 253.103 120.199 253.021 132.197 253.021C144.196 253.021 153.915 253.103 153.915 253.198Z" fill="#EBEBEB"/>
<path d="M176.65 261.004C176.65 261.106 166.925 261.181 154.933 261.181C142.941 261.181 133.215 261.106 133.215 261.004C133.215 260.902 142.934 260.828 154.933 260.828C166.932 260.828 176.65 260.909 176.65 261.004Z" fill="#EBEBEB"/>
<path d="M223.96 253.198C223.96 253.293 214.241 253.375 202.243 253.375C190.244 253.375 180.525 253.293 180.525 253.198C180.525 253.103 190.251 253.021 202.243 253.021C214.235 253.021 223.96 253.103 223.96 253.198Z" fill="#EBEBEB"/>
<path d="M172.381 253.191C170.432 253.366 168.474 253.425 166.518 253.368C164.561 253.425 162.603 253.366 160.654 253.191C162.603 253.016 164.561 252.957 166.518 253.014C168.474 252.957 170.432 253.016 172.381 253.191Z" fill="#EBEBEB"/>
<path d="M123.477 261.004C121.528 261.184 119.569 261.243 117.613 261.181C115.657 261.243 113.698 261.184 111.749 261.004C113.699 260.829 115.657 260.77 117.613 260.828C119.569 260.77 121.527 260.829 123.477 261.004Z" fill="#EBEBEB"/>
<path d="M193.556 260.678C191.679 260.853 189.793 260.912 187.909 260.855C186.027 260.912 184.144 260.853 182.27 260.678C184.144 260.503 186.027 260.444 187.909 260.501C189.793 260.444 191.679 260.503 193.556 260.678Z" fill="#EBEBEB"/>
<path d="M153.915 271.082C153.915 271.177 144.19 271.259 132.197 271.259C120.205 271.259 110.48 271.177 110.48 271.082C110.48 270.987 120.199 270.905 132.197 270.905C144.196 270.905 153.915 270.98 153.915 271.082Z" fill="#EBEBEB"/>
<path d="M176.65 278.888C176.65 278.99 166.925 279.065 154.933 279.065C142.941 279.065 133.215 278.99 133.215 278.888C133.215 278.786 142.934 278.712 154.933 278.712C166.932 278.712 176.65 278.8 176.65 278.888Z" fill="#EBEBEB"/>
<path d="M223.96 271.082C223.96 271.177 214.241 271.259 202.243 271.259C190.244 271.259 180.525 271.177 180.525 271.082C180.525 270.987 190.251 270.905 202.243 270.905C214.235 270.905 223.96 270.98 223.96 271.082Z" fill="#EBEBEB"/>
<path d="M172.381 271.075C170.432 271.25 168.474 271.309 166.518 271.252C164.561 271.309 162.603 271.25 160.654 271.075C162.603 270.9 164.561 270.841 166.518 270.898C168.474 270.841 170.432 270.9 172.381 271.075Z" fill="#EBEBEB"/>
<path d="M123.477 278.888C121.528 279.068 119.569 279.127 117.613 279.065C115.657 279.127 113.698 279.067 111.749 278.888C113.699 278.713 115.657 278.654 117.613 278.712C119.569 278.654 121.527 278.713 123.477 278.888Z" fill="#EBEBEB"/>
<path d="M193.556 278.562C191.679 278.737 189.793 278.796 187.909 278.739C186.027 278.796 184.144 278.737 182.27 278.562C184.144 278.383 186.027 278.324 187.909 278.385C189.793 278.324 191.679 278.383 193.556 278.562Z" fill="#EBEBEB"/>
<path d="M154.315 302.083C154.315 302.185 144.597 302.26 132.598 302.26C120.599 302.26 110.881 302.185 110.881 302.083C110.881 301.981 120.606 301.906 132.598 301.906C144.59 301.906 154.315 301.988 154.315 302.083Z" fill="#EBEBEB"/>
<path d="M177.051 309.896C177.051 309.992 167.325 310.073 155.333 310.073C143.341 310.073 133.616 309.992 133.616 309.896C133.616 309.801 143.341 309.72 155.333 309.72C167.325 309.72 177.051 309.801 177.051 309.896Z" fill="#EBEBEB"/>
<path d="M224.36 302.083C224.36 302.185 214.635 302.26 202.643 302.26C190.651 302.26 180.926 302.185 180.926 302.083C180.926 301.981 190.644 301.906 202.643 301.906C214.642 301.906 224.36 301.988 224.36 302.083Z" fill="#EBEBEB"/>
<path d="M172.775 302.083C170.826 302.258 168.868 302.317 166.911 302.26C164.955 302.317 162.997 302.258 161.048 302.083C162.997 301.904 164.955 301.845 166.911 301.906C168.868 301.845 170.826 301.904 172.775 302.083Z" fill="#EBEBEB"/>
<path d="M123.884 309.896C121.934 310.071 119.976 310.13 118.02 310.073C116.064 310.13 114.106 310.071 112.156 309.896C114.106 309.721 116.064 309.662 118.02 309.72C119.976 309.662 121.934 309.721 123.884 309.896Z" fill="#EBEBEB"/>
<path d="M193.956 309.563C192.082 309.742 190.198 309.801 188.316 309.74C186.432 309.802 184.546 309.742 182.67 309.563C184.547 309.388 186.432 309.329 188.316 309.386C190.198 309.329 192.082 309.388 193.956 309.563Z" fill="#EBEBEB"/>
<path d="M153.915 287.898C153.915 287.994 144.19 288.075 132.197 288.075C120.205 288.075 110.48 287.994 110.48 287.898C110.48 287.803 120.199 287.722 132.197 287.722C144.196 287.722 153.915 287.796 153.915 287.898Z" fill="#EBEBEB"/>
<path d="M176.65 295.705C176.65 295.8 166.925 295.882 154.933 295.882C142.941 295.882 133.215 295.8 133.215 295.705C133.215 295.61 142.934 295.528 154.933 295.528C166.932 295.528 176.65 295.61 176.65 295.705Z" fill="#EBEBEB"/>
<path d="M223.96 287.898C223.96 287.994 214.241 288.075 202.243 288.075C190.244 288.075 180.525 287.994 180.525 287.898C180.525 287.803 190.251 287.722 202.243 287.722C214.235 287.722 223.96 287.796 223.96 287.898Z" fill="#EBEBEB"/>
<path d="M172.381 287.892C170.432 288.067 168.474 288.126 166.518 288.068C164.561 288.126 162.603 288.067 160.654 287.892C162.603 287.712 164.561 287.653 166.518 287.715C168.474 287.653 170.432 287.712 172.381 287.892Z" fill="#EBEBEB"/>
<path d="M123.477 295.705C121.527 295.88 119.569 295.939 117.613 295.882C115.657 295.939 113.699 295.88 111.749 295.705C113.699 295.53 115.657 295.471 117.613 295.528C119.569 295.471 121.527 295.53 123.477 295.705Z" fill="#EBEBEB"/>
<path d="M193.556 295.378C191.679 295.553 189.793 295.612 187.909 295.555C186.027 295.613 184.144 295.553 182.27 295.378C184.144 295.199 186.027 295.14 187.909 295.202C189.793 295.14 191.679 295.199 193.556 295.378Z" fill="#EBEBEB"/>
<path d="M146.049 271.701V286.559H143.294V280.16H135.625V286.531H132.869V271.701H135.625V277.821H143.294V271.701H146.049Z" fill="#263238"/>
<path d="M153.033 274.04H148.119V271.708H160.708V274.04H155.788V286.566H153.033V274.04Z" fill="#263238"/>
<path d="M176.399 286.559V276.706L171.526 284.866H170.277L165.405 276.842V286.566H162.778V271.701H165.045L170.936 281.52L176.718 271.673H178.985V286.532L176.399 286.559Z" fill="#263238"/>
<path d="M183.009 271.701H185.765V284.24H193.515V286.579H183.009V271.701Z" fill="#263238"/>
<path d="M141.951 105.747L134.35 101.871C134.191 96.9072 132.185 92.182 128.725 88.6246C125.266 85.0672 120.604 82.9348 115.655 82.6465C110.706 82.3583 105.829 83.935 101.981 87.0667C98.1339 90.1985 95.5946 94.6589 94.8625 99.5713C94.1304 104.484 95.2584 109.493 98.025 113.614C100.791 117.735 104.996 120.671 109.813 121.844C114.63 123.017 119.711 122.342 124.056 119.952C128.402 117.563 131.699 113.631 133.298 108.93L141.951 105.747Z" fill="white"/>
<path d="M141.95 105.747L133.324 109.018C133.314 109.023 133.303 109.026 133.291 109.027C133.28 109.027 133.269 109.025 133.258 109.021C133.248 109.016 133.238 109.009 133.231 109C133.223 108.992 133.218 108.981 133.215 108.97C133.212 108.957 133.212 108.943 133.215 108.929H133.385C132.27 112.265 130.291 115.245 127.65 117.565C126.863 118.265 126.014 118.891 125.112 119.435C124.644 119.714 124.182 120.006 123.687 120.272L122.16 121.04C117.442 122.985 112.161 123.055 107.392 121.237C104.746 120.234 102.344 118.676 100.348 116.668C98.2516 114.535 96.6524 111.965 95.6649 109.14C94.6187 106.201 94.2838 103.054 94.6876 99.96C95.0967 96.7838 96.2604 93.7523 98.0809 91.12C99.8249 88.6177 102.11 86.5421 104.766 85.0476C107.266 83.6302 110.046 82.7784 112.91 82.552C118.062 82.1644 123.166 83.7788 127.162 87.0604C128.835 88.4723 130.279 90.1354 131.444 91.9904C133.282 94.9674 134.3 98.3786 134.396 101.878L134.349 101.803L141.909 105.754L134.267 101.952C134.254 101.946 134.243 101.935 134.235 101.921C134.228 101.908 134.225 101.893 134.227 101.878C134.101 98.419 133.072 95.0541 131.241 92.1196C130.075 90.2969 128.641 88.6622 126.985 87.2712C123.028 84.0559 117.99 82.4836 112.91 82.8784C110.087 83.1011 107.349 83.9439 104.888 85.3468C102.279 86.8188 100.034 88.8592 98.3184 91.3172C96.548 93.8946 95.4151 96.8571 95.0133 99.96C94.6034 103.004 94.9221 106.101 95.9431 108.997C96.9132 111.775 98.4845 114.304 100.544 116.402C102.502 118.381 104.86 119.916 107.46 120.904C112.154 122.704 117.355 122.651 122.011 120.754L123.531 120.074C124.013 119.809 124.474 119.524 124.943 119.252C125.832 118.715 126.672 118.101 127.454 117.416C130.079 115.135 132.057 112.201 133.188 108.909C133.196 108.888 133.212 108.87 133.232 108.86C133.252 108.85 133.275 108.848 133.297 108.854C133.316 108.862 133.332 108.875 133.343 108.892C133.354 108.909 133.359 108.929 133.358 108.95L133.236 108.861L141.95 105.747Z" fill="#263238"/>
<path d="M119.011 106.869C119.099 106.742 119.202 106.626 119.316 106.522L120.205 105.624C120.959 104.883 122.011 103.856 123.185 102.741V102.891C122.004 101.796 120.945 100.79 120.185 100.062L119.296 99.1848C119.182 99.0814 119.077 98.9676 118.984 98.8448C118.984 98.8448 119.126 98.9332 119.35 99.1236L120.287 99.9532C121.067 100.633 122.146 101.64 123.327 102.741L123.402 102.816L123.327 102.891C122.153 104.006 121.088 105.012 120.307 105.733L119.377 106.576C119.267 106.688 119.144 106.786 119.011 106.869Z" fill="#263238"/>
<path d="M119.011 106.957C118.991 106.964 118.97 106.964 118.95 106.957C118.889 106.889 118.909 106.862 119.255 106.495L120.144 105.604C120.911 104.842 121.922 103.863 123.008 102.823C121.936 101.83 120.932 100.878 120.151 100.103L119.262 99.2256C118.923 98.8856 118.882 98.838 118.95 98.7632C119.018 98.6884 119.058 98.7632 119.432 99.042L120.368 99.8716C121.169 100.552 122.194 101.531 123.28 102.537L123.395 102.646L123.544 102.782L123.368 102.945L123.287 103.027C122.18 104.081 121.142 105.067 120.362 105.747L119.445 106.644C119.167 106.876 119.065 106.957 119.011 106.957ZM123.13 102.877L120.843 105.087C121.522 104.462 122.316 103.727 123.158 102.904L123.13 102.877ZM120.864 100.511C121.542 101.15 122.316 101.871 123.13 102.646C122.336 101.884 121.542 101.157 120.864 100.538V100.511Z" fill="#263238"/>
<path d="M109.903 98.8176C109.818 98.9471 109.716 99.0638 109.598 99.1644L108.716 100.055C107.956 100.803 106.904 101.823 105.736 102.945V102.796C106.917 103.89 107.976 104.89 108.736 105.624L109.625 106.502C109.835 106.706 109.944 106.828 109.93 106.842C109.803 106.756 109.683 106.661 109.571 106.556L108.587 105.76C107.799 105.08 106.727 104.067 105.546 102.972L105.465 102.898L105.546 102.823C106.714 101.701 107.786 100.701 108.566 99.9804L109.496 99.1304C109.619 99.0104 109.756 98.9054 109.903 98.8176Z" fill="#263238"/>
<path d="M109.944 106.957C109.89 106.957 109.795 106.882 109.523 106.651L108.587 105.822C107.799 105.142 106.768 104.176 105.675 103.156L105.56 103.047L105.411 102.911L105.58 102.748L105.668 102.666C106.775 101.612 107.806 100.626 108.587 99.9123L109.523 99.0692C109.89 98.7496 109.93 98.7156 109.998 98.7836C110.066 98.8516 109.998 98.906 109.693 99.2528L108.804 100.144C108.044 100.898 107.033 101.878 105.947 102.918C107.026 103.931 108.037 104.883 108.797 105.638L109.693 106.515C110.032 106.862 110.066 106.896 110.005 106.971C109.984 106.973 109.962 106.968 109.944 106.957ZM105.797 103.034C106.625 103.809 107.413 104.53 108.091 105.142L105.824 103.013L105.797 103.034ZM105.791 102.755C106.625 101.959 107.419 101.198 108.084 100.545C107.399 101.198 106.598 101.952 105.757 102.755H105.791Z" fill="#263238"/>
<path d="M112.245 108.8C112.19 108.8 113.147 106.08 114.376 102.782C115.604 99.484 116.656 96.8252 116.704 96.8456C116.751 96.866 115.801 99.5656 114.572 102.857C113.344 106.148 112.299 108.8 112.245 108.8Z" fill="#263238"/>
<path d="M112.251 108.854H112.211C112.109 108.82 112.095 108.814 112.747 106.971C113.154 105.835 113.704 104.332 114.301 102.734C114.898 101.136 115.462 99.6404 115.903 98.5184C116.615 96.7028 116.636 96.7028 116.737 96.7436C116.839 96.7844 116.853 96.7844 116.201 98.6272C115.794 99.7628 115.244 101.272 114.647 102.864C114.05 104.455 113.487 105.958 113.046 107.086C112.421 108.65 112.333 108.854 112.251 108.854ZM115.747 99.382C115.387 100.314 114.953 101.463 114.457 102.782C113.962 104.101 113.541 105.257 113.202 106.182C113.561 105.257 113.996 104.142 114.491 102.782C114.987 101.422 115.407 100.32 115.747 99.382Z" fill="#263238"/>
<path d="M458.779 321.388C458.779 321.484 365.801 321.565 251.107 321.565C136.412 321.565 43.4347 321.484 43.4347 321.388C43.4347 321.293 136.412 321.212 251.107 321.212C365.801 321.212 458.779 321.293 458.779 321.388Z" fill="#263238"/>
<path d="M164.997 86.1764C165.283 84.3722 166.153 82.7123 167.474 81.4536C168.796 80.1949 170.494 79.4075 172.307 79.2132C173.26 79.231 174.211 79.1235 175.137 78.8936C175.841 78.5529 176.521 78.1644 177.173 77.7308C178.296 77.1576 179.58 76.9853 180.814 77.2425C182.048 77.4997 183.158 78.1709 183.959 79.1452C185.412 81.0084 185.995 78.4176 189.429 80.4576C192.273 82.1508 190.787 84.5376 190.787 84.5376C192.259 84.5164 193.693 85.0078 194.844 85.9279C195.995 86.8481 196.792 88.14 197.098 89.5832C197.438 91.4192 197.064 93.6632 198.49 94.8464C199.168 95.4312 200.146 95.5876 200.865 96.1452C202.188 97.172 202.222 99.1576 201.937 100.81C201.652 102.462 201.123 104.21 201.734 105.774C202.738 108.344 206.389 109.358 206.837 112.078C207.048 113.363 206.511 114.906 207.401 115.852C207.803 116.193 208.262 116.46 208.758 116.64C209.712 117.111 210.519 117.834 211.091 118.733C211.663 119.631 211.977 120.67 211.999 121.735C212.022 122.801 211.751 123.852 211.218 124.774C210.685 125.696 209.909 126.453 208.975 126.963C208.459 127.248 207.842 127.507 207.618 128.064C207.394 128.622 207.808 129.329 208.1 129.921C208.646 131.009 208.823 132.247 208.602 133.446C208.381 134.644 207.774 135.737 206.875 136.558C205.976 137.379 204.833 137.882 203.622 137.991C202.411 138.1 201.197 137.809 200.166 137.163C199.051 139.138 197.214 140.601 195.042 141.243C194.056 141.568 192.997 141.597 191.995 141.324C191.218 141.04 190.507 140.6 189.905 140.032C186.939 137.442 182.779 133.477 182.5 129.547" fill="#263238"/>
<path d="M233.461 132.539L215.68 148.859C213.475 148.349 186.403 132.131 186.403 132.131L182.141 153C182.141 153 209.851 165.764 217.472 164.22C218.721 163.962 220.763 163.805 222.046 162.18C228.154 154.326 241.09 134.892 241.09 134.892L233.461 132.539Z" fill="#FFBE9D"/>
<path d="M242.074 114.58C240.9 115.063 236.705 122.148 236.705 122.148L235.653 122.203C235.196 122.227 234.749 122.346 234.34 122.551C233.931 122.756 233.568 123.043 233.274 123.394C232.98 123.745 232.761 124.154 232.631 124.593C232.501 125.033 232.462 125.494 232.518 125.95C232.864 128.901 233.482 132.539 233.482 132.539L239.345 135.218L241.09 134.851C242.705 134.769 244.279 131.451 245.277 129.152C246.275 126.854 244.639 126.371 244.639 126.371C244.639 124.066 242.691 124.522 242.691 124.522C242.686 124.252 242.627 123.986 242.519 123.739C242.41 123.492 242.254 123.269 242.059 123.084C241.864 122.898 241.634 122.752 241.383 122.656C241.131 122.56 240.863 122.514 240.594 122.522C240.594 122.522 243.193 117.762 243.702 116.069C244.211 114.376 243.248 114.104 242.074 114.58Z" fill="#FFBE9D"/>
<path d="M242.576 124.522C242.408 125.032 242.203 125.529 241.965 126.011C241.859 126.264 241.737 126.509 241.599 126.745C241.422 127.013 241.207 127.254 240.961 127.459C240.685 127.696 240.357 127.864 240.004 127.949C239.806 127.985 239.604 127.979 239.408 127.932C239.213 127.885 239.03 127.798 238.87 127.677C238.707 127.542 238.591 127.358 238.538 127.153C238.497 126.958 238.497 126.757 238.538 126.562C238.608 126.22 238.708 125.886 238.836 125.562C239.044 125.013 239.289 124.479 239.569 123.964C239.754 123.618 239.961 123.285 240.187 122.964C240.259 122.837 240.35 122.722 240.458 122.624C240.492 122.624 240.146 123.155 239.712 124.039C239.454 124.558 239.228 125.091 239.033 125.637C238.915 125.951 238.822 126.274 238.755 126.602C238.718 126.762 238.724 126.929 238.773 127.086C238.822 127.243 238.912 127.383 239.033 127.493C239.168 127.594 239.321 127.666 239.485 127.705C239.648 127.743 239.818 127.748 239.983 127.718C240.298 127.643 240.591 127.497 240.838 127.289C241.075 127.095 241.281 126.865 241.449 126.609C241.593 126.393 241.72 126.165 241.829 125.929C242.043 125.442 242.292 124.971 242.576 124.522Z" fill="#EB996E"/>
<path d="M244.571 126.045C244.558 126.184 244.526 126.322 244.476 126.453C244.369 126.816 244.24 127.173 244.089 127.52C243.874 128.051 243.573 128.542 243.2 128.976C242.981 129.244 242.702 129.458 242.386 129.601C242.209 129.695 242.008 129.735 241.809 129.715C241.61 129.696 241.42 129.619 241.264 129.493C241.108 129.367 240.993 129.198 240.931 129.007C240.87 128.816 240.866 128.611 240.92 128.418C240.977 128.083 241.068 127.755 241.191 127.439C241.372 126.908 241.583 126.388 241.823 125.882C242.026 125.446 242.209 125.1 242.345 124.868C242.402 124.741 242.48 124.624 242.576 124.522C242.61 124.522 242.338 125.066 241.972 125.943C241.789 126.385 241.585 126.915 241.395 127.507C241.279 127.809 241.197 128.124 241.151 128.445C241.103 128.598 241.102 128.761 241.147 128.914C241.193 129.068 241.283 129.204 241.406 129.305C241.529 129.407 241.68 129.469 241.839 129.484C241.998 129.5 242.157 129.467 242.298 129.39C242.584 129.258 242.839 129.066 243.044 128.826C243.411 128.422 243.714 127.963 243.94 127.466C244.32 126.596 244.537 126.031 244.571 126.045Z" fill="#EB996E"/>
<path d="M245.609 127.752C245.61 128.129 245.532 128.502 245.379 128.846C245.242 129.233 245.062 129.602 244.843 129.948C244.716 130.16 244.566 130.356 244.395 130.533C244.292 130.638 244.166 130.717 244.027 130.763C243.887 130.809 243.739 130.821 243.594 130.798C243.449 130.758 243.319 130.676 243.22 130.562C243.121 130.449 243.057 130.308 243.037 130.159C243.002 129.907 243.016 129.651 243.078 129.404C243.175 129.007 243.321 128.623 243.512 128.262C243.667 127.923 243.841 127.594 244.035 127.276C243.963 127.643 243.837 127.998 243.662 128.33C243.498 128.689 243.373 129.065 243.288 129.452C243.249 129.677 243.249 129.907 243.288 130.132C243.302 130.237 243.345 130.336 243.412 130.417C243.479 130.499 243.568 130.56 243.668 130.594C243.778 130.61 243.889 130.599 243.993 130.563C244.097 130.526 244.191 130.464 244.266 130.383C244.426 130.224 244.567 130.046 244.686 129.853C244.908 129.522 245.099 129.171 245.257 128.806C245.494 128.166 245.576 127.745 245.609 127.752Z" fill="#EB996E"/>
<path d="M235.653 122.203C237.381 122.13 239.112 122.146 240.838 122.25C240.962 122.686 240.926 123.152 240.737 123.564C240.548 123.975 240.218 124.305 239.807 124.494C238.971 124.843 238.06 124.974 237.16 124.875C237.505 125.199 237.779 125.592 237.964 126.028C238.149 126.464 238.241 126.934 238.234 127.408C238.227 127.882 238.121 128.349 237.923 128.779C237.725 129.209 237.44 129.594 237.085 129.907" fill="#FFBE9D"/>
<path d="M237.085 129.88C237.445 129.495 237.733 129.048 237.934 128.561C238.171 127.94 238.217 127.262 238.065 126.615C237.914 125.968 237.573 125.381 237.085 124.93L236.868 124.726H237.167C237.967 124.803 238.774 124.71 239.535 124.454C240.452 124.1 241.069 123.053 240.737 122.257L240.832 122.325C239.318 122.21 238.022 122.21 237.106 122.196H236.04C235.912 122.213 235.782 122.213 235.653 122.196C235.778 122.165 235.905 122.149 236.033 122.148C236.285 122.148 236.644 122.108 237.106 122.094C238.022 122.094 239.318 122.04 240.845 122.135H240.913V122.203C241.002 122.441 241.036 122.696 241.012 122.949C240.989 123.203 240.909 123.447 240.777 123.665C240.512 124.131 240.099 124.495 239.603 124.698C238.807 124.967 237.962 125.062 237.126 124.977L237.208 124.787C237.781 125.327 238.155 126.046 238.266 126.827C238.354 127.437 238.274 128.06 238.036 128.629C237.872 129.001 237.642 129.34 237.357 129.628C237.28 129.726 237.188 129.811 237.085 129.88Z" fill="#EB996E"/>
<path d="M201.707 308.516C201.837 308.341 201.928 308.139 201.971 307.924C202.143 307.356 202.191 306.758 202.114 306.17C202.097 305.964 202.049 305.763 201.971 305.572C201.927 305.448 201.85 305.339 201.748 305.257C201.646 305.174 201.524 305.121 201.394 305.102C201.315 305.093 201.236 305.102 201.16 305.128C201.085 305.154 201.017 305.196 200.96 305.252C200.859 305.362 200.797 305.504 200.784 305.653C200.763 305.898 200.763 306.143 200.784 306.388C200.824 306.884 200.824 307.353 200.899 307.931C200.925 308.096 200.995 308.25 201.101 308.378C201.207 308.506 201.346 308.603 201.503 308.659C201.801 308.746 202.115 308.76 202.419 308.7C202.967 308.601 203.502 308.441 204.014 308.224C204.258 308.119 204.496 308.001 204.727 307.87C204.972 307.752 205.191 307.585 205.371 307.38C205.473 307.258 205.529 307.104 205.529 306.945C205.529 306.786 205.473 306.632 205.371 306.51C205.267 306.416 205.141 306.35 205.005 306.318C204.868 306.286 204.726 306.289 204.591 306.326C204.192 306.432 203.809 306.59 203.451 306.796C202.933 307.076 202.458 307.428 202.039 307.843C201.747 308.135 201.618 308.332 201.639 308.346C202.24 307.849 202.887 307.412 203.573 307.04C203.914 306.865 204.273 306.731 204.645 306.639C204.835 306.639 205.039 306.639 205.113 306.734C205.158 306.801 205.178 306.88 205.17 306.959C205.163 307.038 205.128 307.113 205.073 307.17C204.915 307.327 204.731 307.455 204.53 307.55C204.313 307.666 204.082 307.775 203.851 307.877C203.362 308.079 202.852 308.227 202.331 308.319C202.095 308.378 201.848 308.378 201.612 308.319C201.514 308.287 201.429 308.228 201.365 308.148C201.301 308.069 201.262 307.972 201.252 307.87C201.177 307.401 201.164 306.857 201.116 306.388C201.089 306.162 201.078 305.935 201.082 305.708C201.082 305.517 201.191 305.422 201.327 305.436C201.645 305.436 201.754 305.878 201.808 306.224C201.922 306.988 201.888 307.766 201.707 308.516Z" fill="#263238"/>
<path d="M230.597 281.18C230.646 280.968 230.646 280.747 230.597 280.534C230.487 279.946 230.256 279.388 229.919 278.895C229.814 278.72 229.684 278.562 229.532 278.426C229.438 278.334 229.32 278.269 229.192 278.239C229.064 278.209 228.931 278.215 228.806 278.256C228.731 278.283 228.662 278.326 228.606 278.382C228.55 278.439 228.507 278.507 228.48 278.582C228.435 278.724 228.435 278.876 228.48 279.018C228.571 279.255 228.685 279.482 228.819 279.698C229.07 280.126 229.274 280.548 229.6 281.058C229.696 281.193 229.827 281.3 229.978 281.368C230.13 281.436 230.297 281.463 230.462 281.445C230.767 281.394 231.055 281.265 231.296 281.071C231.966 280.59 232.545 279.994 233.007 279.31C233.171 279.094 233.295 278.85 233.373 278.589C233.413 278.435 233.398 278.271 233.329 278.127C233.261 277.983 233.145 277.867 233 277.8C232.867 277.76 232.726 277.754 232.591 277.784C232.455 277.814 232.33 277.878 232.226 277.97C231.913 278.244 231.637 278.557 231.405 278.902C231.067 279.383 230.797 279.91 230.604 280.466C230.515 280.663 230.467 280.876 230.462 281.092C230.787 280.378 231.175 279.695 231.622 279.052C231.85 278.744 232.115 278.466 232.409 278.222C232.47 278.164 232.544 278.123 232.624 278.101C232.705 278.08 232.79 278.079 232.871 278.1C232.938 278.139 232.989 278.201 233.016 278.274C233.044 278.347 233.045 278.427 233.02 278.501C232.953 278.713 232.847 278.911 232.708 279.086C232.564 279.292 232.407 279.489 232.24 279.677C231.893 280.077 231.502 280.436 231.072 280.745C230.876 280.903 230.642 281.008 230.394 281.051C230.292 281.064 230.189 281.048 230.097 281.005C230.004 280.962 229.926 280.893 229.871 280.806C229.6 280.418 229.342 279.936 229.098 279.534C228.973 279.347 228.864 279.149 228.772 278.943C228.704 278.759 228.772 278.644 228.867 278.589C229.165 278.467 229.45 278.8 229.647 279.086C230.09 279.719 230.413 280.429 230.597 281.18Z" fill="#263238"/>
<path d="M210.475 287.817L202.195 305.803L188.832 299.615L197.397 277.358L210.475 287.817Z" fill="#FFBE9D"/>
<path d="M203.763 304.599L198.924 313.847C198.924 313.847 211.31 326.679 210.142 329.542L181.028 315.554L189.029 297.017L203.763 304.599Z" fill="#455A64"/>
<path d="M190.522 308.258C190.201 308.208 189.873 308.279 189.601 308.458C189.329 308.636 189.133 308.909 189.049 309.223C188.989 309.547 189.057 309.882 189.24 310.157C189.423 310.431 189.705 310.623 190.027 310.692C190.367 310.743 190.715 310.666 191.002 310.475C191.289 310.284 191.496 309.993 191.581 309.658C191.6 309.321 191.493 308.989 191.281 308.726C191.069 308.463 190.767 308.289 190.434 308.237" fill="#E0E0E0"/>
<g opacity="0.6">
<path opacity="0.6" d="M181.028 315.554L182.242 313.228L209.701 327.508C209.701 327.508 210.726 328.698 210.142 329.548L181.028 315.554Z" fill="white"/>
</g>
<path d="M199.467 313.922C199.392 314.065 198.653 313.786 197.73 313.922C196.807 314.058 196.155 314.466 196.046 314.344C195.938 314.221 196.549 313.5 197.668 313.378C198.788 313.256 199.528 313.806 199.467 313.922Z" fill="#263238"/>
<path d="M201.91 316.656C201.876 316.812 201.15 316.758 200.376 317.125C199.603 317.492 199.162 318.07 199.019 317.995C198.876 317.92 199.175 317.07 200.146 316.635C201.116 316.2 201.971 316.52 201.91 316.656Z" fill="#263238"/>
<path d="M201.897 321.15C201.754 321.15 201.897 320.314 202.63 319.709C203.362 319.104 204.184 319.11 204.184 319.26C204.184 319.41 203.58 319.627 202.982 320.13C202.385 320.634 202.039 321.205 201.897 321.15Z" fill="#263238"/>
<path d="M200.885 310.359C200.763 310.461 200.207 309.951 199.379 309.624C198.551 309.298 197.797 309.244 197.784 309.087C197.77 308.931 198.612 308.706 199.582 309.087C200.553 309.468 200.974 310.284 200.885 310.359Z" fill="#263238"/>
<path d="M210.665 293.991L231.758 241.4C231.758 241.4 231.269 232.057 229.552 229.112C227.835 226.168 175.836 208.957 175.836 208.957C175.836 208.957 162.588 205.761 153.759 208.957C144.929 212.153 138.305 223.237 139.507 229.357C140.708 235.477 145.913 240.04 145.913 240.04L184.149 241.182L204.998 248.798L190.977 289.075C190.977 289.075 198.171 296.942 210.665 293.991Z" fill="#263238"/>
<path d="M229.342 258.733L229.837 278.528L215.124 278.888L213 255.129L229.342 258.733Z" fill="#FFBE9D"/>
<path d="M230.747 276.76L230.475 287.198C230.475 287.198 247.245 293.23 247.442 296.317L215.158 296.65L214.167 276.468L230.747 276.76Z" fill="#455A64"/>
<path d="M220.444 285.892C220.139 285.998 219.88 286.209 219.716 286.488C219.552 286.768 219.492 287.096 219.549 287.416C219.636 287.728 219.84 287.995 220.117 288.161C220.395 288.328 220.726 288.383 221.042 288.313C221.369 288.208 221.647 287.985 221.821 287.688C221.995 287.391 222.053 287.04 221.985 286.702C221.86 286.385 221.618 286.129 221.31 285.987C221.001 285.846 220.65 285.829 220.329 285.94" fill="#E0E0E0"/>
<g opacity="0.6">
<path opacity="0.6" d="M215.137 296.65L215.198 294.025L246.132 294.705C246.132 294.705 247.578 295.317 247.422 296.33L215.137 296.65Z" fill="white"/>
</g>
<path d="M230.964 287.028C230.964 287.184 230.177 287.266 229.403 287.783C228.629 288.3 228.229 288.966 228.08 288.905C227.93 288.844 228.161 287.926 229.104 287.32C230.048 286.715 230.998 286.878 230.964 287.028Z" fill="#263238"/>
<path d="M234.364 288.395C234.405 288.544 233.726 288.823 233.197 289.496C232.667 290.17 232.518 290.856 232.362 290.856C232.206 290.856 232.097 289.952 232.769 289.129C233.441 288.306 234.364 288.245 234.364 288.395Z" fill="#263238"/>
<path d="M236.332 292.434C236.19 292.475 235.959 291.686 236.332 290.816C236.705 289.945 237.459 289.592 237.527 289.728C237.594 289.864 237.146 290.326 236.848 291.04C236.549 291.754 236.488 292.4 236.332 292.434Z" fill="#263238"/>
<path d="M230.645 283.213C230.577 283.363 229.851 283.152 228.962 283.213C228.073 283.274 227.38 283.574 227.299 283.438C227.218 283.302 227.876 282.758 228.928 282.662C229.98 282.567 230.747 283.091 230.645 283.213Z" fill="#263238"/>
<path d="M220.75 203.762C220.75 203.762 229.573 203.082 230.55 212.643C231.527 222.204 232.491 266.954 232.491 266.954L211.893 268.675L208.704 222.965L175.836 208.957C175.836 208.957 214.866 202.538 220.75 203.762Z" fill="#263238"/>
<path d="M184.407 190.828C184.407 190.828 189.762 205.863 188.744 207.536C187.726 209.209 173.963 216.104 173.963 216.104L139.534 229.357C139.534 229.357 135.998 223.72 135.998 215.077C135.998 206.434 147.949 190.828 147.949 190.828H184.407Z" fill="#263238"/>
<path d="M174.207 208.189C174.207 208.189 174.254 208.189 174.363 208.277L174.852 208.502L176.759 209.352L183.919 212.48L208.629 223.135L208.52 222.979C208.833 227.494 209.165 232.37 209.518 237.415C210.353 249.213 211.126 260.086 211.737 268.695V268.852H211.887L226.899 267.532L231.032 267.145L232.111 267.029C232.235 267.027 232.358 267.008 232.477 266.975H232.111L231.025 267.043L226.885 267.342L211.866 268.532L212.029 268.675C211.439 260.066 210.672 249.193 209.884 237.395C209.532 232.349 209.206 227.474 208.873 222.958V222.843L208.765 222.802L184.007 212.269L176.806 209.243L174.872 208.454L174.37 208.257C174.319 208.226 174.264 208.203 174.207 208.189Z" fill="#455A64"/>
<path d="M146.823 209.692C147.153 209.639 147.476 209.55 147.786 209.426L150.379 208.59C153.21 207.629 156.112 206.895 159.059 206.394C162.002 205.912 165.007 205.951 167.936 206.509C169.141 206.791 170.33 207.136 171.499 207.543C171.219 207.358 170.918 207.205 170.603 207.087C169.76 206.733 168.888 206.451 167.997 206.244C165.039 205.599 161.985 205.52 158.998 206.013C156.03 206.512 153.115 207.288 150.291 208.332C149.205 208.719 148.336 209.052 147.739 209.29C147.421 209.393 147.114 209.527 146.823 209.692Z" fill="#455A64"/>
<path d="M151.689 201.77C152.69 201.708 153.694 201.708 154.695 201.77C155.625 201.831 156.731 201.974 157.96 202.116C159.188 202.259 160.532 202.429 161.923 202.694C164.314 203.078 166.606 203.928 168.669 205.197C169.492 205.772 170.275 206.403 171.01 207.087C170.877 206.847 170.708 206.629 170.508 206.441C170.002 205.892 169.438 205.399 168.825 204.972C166.764 203.609 164.437 202.703 161.998 202.314C160.586 202.048 159.229 201.892 157.994 201.763C156.758 201.634 155.652 201.525 154.716 201.498C153.97 201.461 153.223 201.493 152.483 201.593C152.211 201.611 151.943 201.671 151.689 201.77Z" fill="#455A64"/>
<path d="M185.276 131.607C187.703 132.546 189.725 134.307 190.99 136.585C193.142 140.393 192.565 142.276 192.008 144.527C191.452 146.778 190.454 151.246 190.4 150.96C190.346 150.674 185.276 131.607 185.276 131.607Z" fill="#FFBE9D"/>
<path d="M185.018 131.6L180.505 128.921L155.055 128.248L163.627 156.414L179.127 166.199L188.316 161.588L189.233 151.354L185.018 131.6Z" fill="#FFBE9D"/>
<path d="M185.276 131.607C185.276 131.607 191.126 150.416 190.99 155.802C190.855 161.187 188.629 176.487 188.887 179.5C189.144 182.512 188.092 190.828 184.421 190.828H147.949C147.949 190.828 139.724 188.55 139.364 183.593C139.005 178.636 145.696 136.258 145.696 136.258C145.696 136.258 150.365 129.2 153.379 128.581C156.392 127.962 161.984 126.691 164 132.94C166.015 139.189 166.674 142.392 170.97 146.703C175.266 151.014 181.394 155.849 181.394 155.849C181.394 155.849 186.335 151.708 186.552 146.105C186.769 140.502 184.686 131.424 184.686 131.424L185.276 131.607Z" fill="#5E60CE"/>
<path d="M179.847 191.236C180.38 191.102 180.874 190.841 181.285 190.475C182.323 189.644 183.156 188.585 183.722 187.381C184.282 186.19 184.698 184.937 184.964 183.648C185.121 183.129 185.206 182.591 185.215 182.05C184.99 182.54 184.817 183.053 184.699 183.58C184.361 184.824 183.92 186.039 183.383 187.211C182.831 188.366 182.062 189.403 181.116 190.264C180.396 190.91 179.847 191.175 179.847 191.236Z" fill="#263238"/>
<path d="M160.579 167.919C160.758 168.119 160.963 168.293 161.19 168.436C161.78 168.866 162.412 169.235 163.077 169.538C164.062 169.999 165.109 170.315 166.185 170.476C167.51 170.668 168.859 170.61 170.162 170.306C172.517 169.703 174.66 168.458 176.352 166.709C176.862 166.189 177.336 165.635 177.77 165.05C177.942 164.843 178.086 164.614 178.198 164.37C178.143 164.322 177.485 165.254 176.162 166.505C174.454 168.15 172.349 169.322 170.054 169.905C167.749 170.431 165.336 170.21 163.165 169.272C161.523 168.579 160.62 167.858 160.579 167.919Z" fill="#263238"/>
<path d="M180.315 190.556C180.39 190.624 180.892 190.046 181.061 189.149C181.231 188.251 180.994 187.53 180.899 187.564C180.796 188.063 180.726 188.567 180.688 189.074C180.525 189.89 180.22 190.502 180.315 190.556Z" fill="#263238"/>
<g opacity="0.3">
<path opacity="0.3" d="M177.587 165.24C177.337 168.033 175.992 170.613 173.847 172.414C172.769 173.286 171.502 173.891 170.147 174.18C168.792 174.469 167.388 174.435 166.049 174.08C164.715 173.698 163.512 172.954 162.572 171.93C161.632 170.907 160.992 169.644 160.722 168.28C162.558 169.224 164.515 169.911 166.538 170.32C168.721 170.612 170.942 170.267 172.933 169.324C174.924 168.382 176.602 166.884 177.763 165.009L177.465 165.322" fill="black"/>
</g>
<g opacity="0.3">
<path opacity="0.3" d="M185.276 182.621C185.538 184.008 185.436 185.44 184.981 186.776C184.525 188.112 183.731 189.307 182.677 190.244C182.474 190.469 182.218 190.637 181.931 190.734C181.644 190.83 181.338 190.851 181.041 190.794C183.093 188.395 184.533 185.531 185.235 182.451" fill="black"/>
</g>
<path d="M135.998 156.876L154.356 165.505C154.356 165.505 161.821 148.913 162.5 146.642C163.179 144.371 165.16 140.787 163.09 136.054C161.02 131.322 155.808 128.69 152.347 129.934C144.237 132.756 135.998 156.876 135.998 156.876Z" fill="#5E60CE"/>
<path d="M189.233 156.822C190.088 156.822 199.935 161.983 199.935 161.983L205.541 143.378C197.166 137.788 188.615 131.974 183.715 130.655L187.991 145.459L189.233 156.822Z" fill="#5E60CE"/>
<path d="M152.557 164.336C149.076 170.061 146.653 173.352 146.653 173.352L177.872 192.392L174.241 200.852L133.792 184.171C133.792 184.171 129.802 180.091 131.213 175.481L137.661 157.644L152.557 164.336Z" fill="#FFBE9D"/>
<path d="M139.066 176.263C140.257 175.517 141.505 174.867 142.798 174.318C144.128 173.889 145.49 173.566 146.87 173.352C145.434 173.249 143.993 173.455 142.643 173.957C141.293 174.459 140.066 175.245 139.045 176.263H139.066Z" fill="#EB996E"/>
<path d="M135.998 156.876C136.122 156.908 136.242 156.951 136.358 157.005L137.376 157.44L141.088 159.093L153.304 164.655L154.79 165.335L154.553 165.424C156.677 161.044 158.53 157.128 159.846 154.306C160.484 152.946 161 151.796 161.38 150.96C161.55 150.6 161.686 150.28 161.794 150.056C161.841 149.95 161.896 149.848 161.957 149.75C161.943 149.866 161.908 149.978 161.855 150.083C161.781 150.3 161.665 150.613 161.502 151.014C161.183 151.817 160.695 152.973 160.064 154.414C158.808 157.27 156.989 161.214 154.872 165.587L154.797 165.743L154.641 165.668L153.155 164.988L141.007 159.324L137.349 157.57L136.358 157.08C136.228 157.032 136.106 156.963 135.998 156.876Z" fill="#263238"/>
<path d="M188.099 139.992C188.27 140.269 188.413 140.563 188.527 140.869C188.864 141.689 189.142 142.532 189.362 143.392C190.053 146.231 190.473 149.129 190.617 152.048C190.798 154.961 190.771 157.884 190.536 160.793C190.441 161.908 190.312 162.833 190.203 163.424C190.163 163.748 190.091 164.067 189.986 164.376C189.985 164.051 190.012 163.725 190.067 163.404C190.128 162.785 190.223 161.888 190.285 160.772C190.455 157.874 190.455 154.967 190.285 152.068C190.131 149.178 189.741 146.306 189.117 143.48C188.922 142.623 188.682 141.776 188.398 140.944C188.27 140.636 188.17 140.317 188.099 139.992Z" fill="#263238"/>
<path d="M202.032 198.179L194.255 194.48L179.08 193.276L177.811 192.379L174.18 200.838C174.18 200.838 178.157 202.749 180.24 202.919L193.006 202.531L199.677 203.211L202.032 198.179Z" fill="#FFBE9D"/>
<path d="M192.287 100.552C192.734 100.646 193.196 100.646 193.644 100.552C194.749 100.372 195.806 99.9649 196.745 99.3548C197.685 98.7486 198.487 97.9517 199.1 97.0156C199.378 96.645 199.576 96.2215 199.684 95.7712C199.396 96.1187 199.131 96.4844 198.89 96.866C197.573 98.5805 195.701 99.7825 193.596 100.266C193.154 100.333 192.717 100.428 192.287 100.552Z" fill="#455A64"/>
<path d="M190.298 91.5144C190.298 91.5144 190.57 91.9292 191.187 92.4052C192.847 93.644 194.928 94.1745 196.976 93.8808C197.4 93.8555 197.813 93.7346 198.184 93.5272C198.184 93.4048 196.277 93.9488 194.031 93.3572C192.693 92.9557 191.431 92.3329 190.298 91.5144Z" fill="#455A64"/>
<path d="M204.876 136.258H204.998C205.079 136.258 205.195 136.211 205.351 136.156C205.794 135.997 206.209 135.767 206.579 135.476C207.176 135.017 207.655 134.423 207.977 133.742C208.404 132.828 208.523 131.8 208.317 130.812C208.202 130.239 207.984 129.693 207.672 129.2C207.324 128.674 206.901 128.202 206.416 127.799C205.916 127.398 205.479 126.924 205.12 126.392C204.957 126.112 204.866 125.795 204.855 125.471C204.844 125.147 204.915 124.825 205.059 124.535C205.417 123.91 205.845 123.329 206.335 122.801C206.591 122.504 206.819 122.183 207.014 121.842C207.204 121.48 207.334 121.09 207.401 120.686C207.514 119.843 207.362 118.985 206.966 118.233C206.569 117.481 205.947 116.872 205.188 116.491C204.402 116.23 203.593 116.044 202.772 115.933C202.407 115.857 202.061 115.709 201.754 115.498C201.467 115.282 201.258 114.979 201.157 114.634C201.007 113.92 201.09 113.176 201.394 112.513C201.673 111.833 202.073 111.194 202.311 110.507C202.604 109.824 202.654 109.06 202.453 108.344C202.222 107.688 201.796 107.118 201.231 106.712C200.233 106.053 199.118 105.591 197.947 105.352C197.01 105.134 196.126 104.729 195.347 104.162C194.795 103.7 194.413 103.065 194.262 102.36C194.147 101.906 194.193 101.425 194.39 101C194.526 100.715 194.655 100.599 194.635 100.586C194.504 100.688 194.397 100.818 194.323 100.966C194.1 101.382 194.028 101.863 194.119 102.326C194.249 103.081 194.635 103.768 195.212 104.271C196.002 104.871 196.904 105.306 197.865 105.55C198.999 105.8 200.077 106.262 201.041 106.91C201.551 107.282 201.935 107.802 202.141 108.399C202.317 109.043 202.264 109.728 201.992 110.337C201.74 111.017 201.367 111.615 201.069 112.329C200.727 113.066 200.637 113.895 200.811 114.689C200.928 115.11 201.181 115.48 201.53 115.743C201.879 115.987 202.274 116.159 202.691 116.246C203.485 116.356 204.269 116.536 205.032 116.783C205.724 117.125 206.292 117.676 206.657 118.357C207.023 119.039 207.166 119.817 207.068 120.584C207.008 120.946 206.894 121.297 206.729 121.625C206.545 121.944 206.334 122.247 206.097 122.529C205.59 123.079 205.153 123.688 204.794 124.345C204.628 124.684 204.548 125.059 204.563 125.436C204.577 125.814 204.684 126.182 204.876 126.507C205.254 127.063 205.711 127.56 206.233 127.983C206.701 128.36 207.11 128.805 207.448 129.302C207.742 129.77 207.953 130.285 208.072 130.825C208.282 131.76 208.184 132.738 207.794 133.613C207.497 134.273 207.054 134.857 206.498 135.32C206.008 135.714 205.461 136.03 204.876 136.258Z" fill="#455A64"/>
<path d="M164.495 92.2352L164.55 89.4404L181.435 86.9244C186.627 86.5844 192.002 92.004 192.117 97.2128C192.246 103 192.178 110.072 191.323 114.349C189.599 122.951 182.928 123.76 182.928 123.76L182.561 132.382L163.437 131.845L164.495 92.2352Z" fill="#FFBE9D"/>
<path d="M189.938 103.571C189.928 103.859 189.806 104.133 189.598 104.333C189.391 104.534 189.114 104.645 188.825 104.645C188.684 104.651 188.543 104.628 188.41 104.578C188.277 104.528 188.156 104.452 188.053 104.354C187.95 104.257 187.867 104.14 187.81 104.01C187.753 103.88 187.722 103.74 187.719 103.598C187.73 103.309 187.851 103.035 188.059 102.833C188.266 102.632 188.543 102.518 188.832 102.517C188.974 102.512 189.116 102.536 189.248 102.587C189.381 102.637 189.502 102.714 189.605 102.812C189.708 102.91 189.791 103.028 189.848 103.158C189.905 103.288 189.936 103.429 189.938 103.571Z" fill="#263238"/>
<path d="M190.142 100.817C190 100.953 189.185 100.3 187.991 100.252C186.796 100.205 185.9 100.769 185.778 100.62C185.656 100.47 185.866 100.293 186.26 100.035C186.789 99.6942 187.41 99.5278 188.038 99.5588C188.659 99.5798 189.257 99.8016 189.742 100.191C190.101 100.484 190.217 100.756 190.142 100.817Z" fill="#263238"/>
<path d="M178.903 103.129C178.894 103.419 178.773 103.694 178.566 103.895C178.358 104.097 178.08 104.21 177.79 104.21C177.648 104.215 177.507 104.191 177.374 104.14C177.242 104.089 177.12 104.013 177.017 103.915C176.914 103.817 176.832 103.699 176.775 103.569C176.718 103.439 176.687 103.298 176.684 103.156C176.695 102.867 176.817 102.594 177.024 102.394C177.232 102.193 177.509 102.081 177.797 102.082C177.939 102.076 178.08 102.099 178.213 102.149C178.345 102.199 178.467 102.275 178.57 102.372C178.673 102.47 178.755 102.587 178.813 102.717C178.87 102.847 178.901 102.987 178.903 103.129Z" fill="#263238"/>
<path d="M178.408 100.565C178.265 100.701 177.451 100.042 176.257 100.001C175.062 99.96 174.166 100.518 174.044 100.361C173.922 100.205 174.132 100.042 174.526 99.7764C175.057 99.4415 175.677 99.2778 176.304 99.3072C176.924 99.3291 177.52 99.5482 178.007 99.9328C178.367 100.232 178.489 100.497 178.408 100.565Z" fill="#263238"/>
<path d="M182.378 109.602C183.015 109.429 183.672 109.338 184.333 109.33C184.638 109.33 184.93 109.262 185.011 109.058C185.05 108.743 184.993 108.423 184.848 108.14C184.591 107.392 184.326 106.604 184.041 105.781C182.921 102.422 182.127 99.6608 182.263 99.62C182.398 99.5792 183.416 102.265 184.529 105.624C184.801 106.454 185.059 107.243 185.296 107.998C185.473 108.373 185.514 108.799 185.412 109.201C185.361 109.307 185.288 109.4 185.198 109.474C185.108 109.548 185.002 109.601 184.889 109.63C184.72 109.667 184.547 109.683 184.373 109.677C183.708 109.74 183.037 109.715 182.378 109.602Z" fill="#263238"/>
<path d="M182.928 123.808C178.758 123.703 174.696 122.459 171.18 120.21C171.18 120.21 173.854 126.398 182.833 125.963L182.928 123.808Z" fill="#EB996E"/>
<path d="M181.761 112.458C181.544 112.163 181.255 111.928 180.923 111.774C180.591 111.621 180.225 111.555 179.86 111.581C179.6 111.599 179.347 111.669 179.114 111.785C178.881 111.902 178.673 112.064 178.503 112.261C178.336 112.454 178.233 112.694 178.206 112.948C178.179 113.202 178.231 113.459 178.354 113.682C178.536 113.905 178.781 114.068 179.057 114.15C179.333 114.233 179.626 114.231 179.901 114.145C180.471 113.965 181.001 113.677 181.462 113.295C181.601 113.203 181.722 113.088 181.822 112.955C181.865 112.888 181.887 112.81 181.887 112.73C181.887 112.651 181.865 112.573 181.822 112.506" fill="#EB996E"/>
<path d="M178.835 110.282C179.032 110.282 178.978 111.581 180.05 112.547C181.123 113.512 182.507 113.424 182.507 113.608C182.507 113.791 182.188 113.846 181.604 113.839C180.852 113.813 180.131 113.524 179.568 113.023C179.02 112.541 178.683 111.862 178.632 111.132C178.591 110.588 178.747 110.276 178.835 110.282Z" fill="#263238"/>
<path d="M178.91 95.88C178.774 96.1996 177.593 95.9956 176.195 96.1044C174.797 96.2132 173.644 96.5532 173.481 96.254C173.399 96.1112 173.61 95.8188 174.078 95.5196C174.699 95.1554 175.396 94.9412 176.114 94.894C176.835 94.8382 177.558 94.9547 178.225 95.234C178.713 95.472 178.964 95.7372 178.91 95.88Z" fill="#263238"/>
<path d="M189.843 97.342C189.626 97.6004 188.812 97.2876 187.807 97.2332C186.803 97.1788 185.975 97.342 185.771 97.0496C185.69 96.9068 185.833 96.6416 186.213 96.3696C186.717 96.0834 187.295 95.9533 187.874 95.9956C188.452 96.038 189.005 96.2509 189.463 96.6076C189.837 96.9272 189.945 97.24 189.843 97.342Z" fill="#263238"/>
<path d="M194.343 86.7204C192.952 89.7464 189.83 94.2548 186.518 94.5812C184.853 94.7266 183.179 94.4423 181.654 93.7555C180.13 93.0687 178.807 92.0022 177.811 90.6576C177.254 93.1124 174.492 94.3636 172.001 94.7376C170.242 95.0527 168.43 94.8883 166.755 94.2616C165.925 93.9352 165.192 93.4015 164.625 92.7112C164.058 92.0209 163.677 91.197 163.518 90.3176C163.287 88.5496 165.887 84.286 167.644 84.0004" fill="#263238"/>
<path d="M167.373 130.982C167.264 132.383 166.727 133.716 165.834 134.801C164.941 135.885 163.737 136.667 162.385 137.04C162.431 138.19 162.066 139.319 161.356 140.223C160.646 141.128 159.638 141.749 158.511 141.975C157.385 142.202 156.216 142.018 155.213 141.457C154.21 140.897 153.439 139.996 153.039 138.917C152.896 138.34 152.667 137.788 152.361 137.278C151.512 136.204 149.863 136.422 148.567 136C146.226 135.238 145.208 132.362 145.472 129.914C145.559 129.434 145.582 128.945 145.54 128.459C145.398 127.48 144.631 126.725 144.061 125.916C141.706 122.57 142.703 117.715 145.296 114.566C146.164 113.519 147.264 112.424 147.182 111.064C147.051 110.311 146.801 109.584 146.443 108.909C146.014 107.746 145.944 106.481 146.242 105.279C146.539 104.076 147.191 102.99 148.112 102.163C148.389 102.019 148.608 101.783 148.732 101.495C148.855 101.208 148.876 100.887 148.791 100.586C148.645 98.7626 149.194 96.952 150.327 95.5185C151.461 94.0851 153.094 93.1353 154.899 92.8608C155.119 92.8547 155.335 92.8062 155.537 92.718C156.093 92.4324 156.107 91.664 156.182 91.0384C156.372 89.3928 157.647 86.3192 158.896 85.238C162.385 82.2528 165.764 84.6804 166.972 85.8228C166.972 85.8228 169.361 97.682 168.9 99.892C168.438 102.102 166.816 107.61 167.461 110.092C168.106 112.574 169.151 117.722 168.14 119.972C167.128 122.223 167.373 130.982 167.373 130.982Z" fill="#263238"/>
<path d="M154.322 92.82C154.322 92.82 154.471 92.9696 154.777 93.194C155.211 93.4991 155.664 93.7762 156.134 94.0236C159.325 95.6792 162.959 96.2769 166.511 95.7304C167.043 95.6509 167.569 95.535 168.085 95.3836C168.452 95.2748 168.649 95.2 168.642 95.1728C168.635 95.1456 167.807 95.3156 166.47 95.472C164.73 95.658 162.973 95.6123 161.244 95.336C159.517 95.0489 157.836 94.5273 156.249 93.7856C155.062 93.2212 154.356 92.7656 154.322 92.82Z" fill="#455A64"/>
<path d="M153.182 93.6564C153.235 93.8931 153.32 94.1218 153.433 94.3364C153.54 94.6085 153.667 94.8722 153.813 95.1252C153.985 95.4743 154.177 95.8127 154.39 96.1384C154.935 96.9957 155.562 97.7974 156.263 98.532C157.126 99.4267 158.081 100.227 159.113 100.919C160.157 101.593 161.267 102.158 162.425 102.605C163.375 102.957 164.357 103.217 165.357 103.38C165.739 103.448 166.124 103.493 166.511 103.516C166.802 103.538 167.095 103.538 167.386 103.516C167.636 103.533 167.887 103.519 168.133 103.476C168.133 103.401 167.067 103.414 165.418 103.088C164.446 102.891 163.492 102.611 162.568 102.252C161.44 101.796 160.358 101.233 159.337 100.572C158.329 99.8935 157.388 99.1193 156.528 98.26C155.83 97.5518 155.196 96.7826 154.634 95.9616C153.657 94.6152 153.25 93.6224 153.182 93.6564Z" fill="#455A64"/>
<path d="M159.371 137.727C159.371 137.727 159.222 137.727 158.957 137.68C158.57 137.596 158.22 137.388 157.96 137.088C157.542 136.621 157.313 136.015 157.315 135.388C157.34 134.55 157.491 133.72 157.763 132.926C158.135 131.928 158.199 130.84 157.946 129.805C157.586 128.683 156.677 127.813 155.91 126.888C155.485 126.438 155.137 125.921 154.879 125.358C154.758 125.074 154.7 124.767 154.71 124.458C154.719 124.149 154.795 123.846 154.933 123.57C155.26 122.988 155.726 122.497 156.29 122.142C156.847 121.734 157.457 121.38 158.048 120.938C158.677 120.527 159.171 119.937 159.466 119.245C159.581 118.892 159.621 118.519 159.582 118.15C159.544 117.781 159.428 117.424 159.242 117.103C158.564 115.872 157.532 114.974 157.281 113.791C157.195 113.229 157.229 112.656 157.381 112.108C157.533 111.561 157.8 111.052 158.163 110.616C158.773 109.799 159.469 109.051 160.24 108.385C160.878 107.813 161.464 107.185 161.991 106.508C162.38 105.988 162.681 105.407 162.88 104.788C162.994 104.391 163.04 103.977 163.016 103.564C163.005 103.421 162.98 103.28 162.941 103.142C162.966 103.683 162.897 104.223 162.737 104.74C162.143 106.104 161.208 107.291 160.023 108.188C159.224 108.853 158.503 109.606 157.871 110.432C157.517 110.904 157.235 111.426 157.037 111.982C156.82 112.586 156.776 113.238 156.908 113.866C157.193 115.226 158.265 116.124 158.883 117.266C159.044 117.543 159.145 117.851 159.179 118.17C159.213 118.488 159.179 118.811 159.079 119.116C158.804 119.734 158.356 120.261 157.79 120.632C157.22 121.054 156.609 121.414 156.032 121.836C155.427 122.229 154.928 122.767 154.58 123.4C154.423 123.722 154.336 124.075 154.326 124.433C154.315 124.792 154.381 125.149 154.519 125.48C154.797 126.081 155.171 126.632 155.625 127.112C156.453 128.044 157.322 128.88 157.661 129.894C157.902 130.872 157.852 131.9 157.519 132.852C157.251 133.67 157.114 134.526 157.111 135.388C157.133 136.059 157.401 136.698 157.865 137.183C158.153 137.489 158.535 137.688 158.951 137.748C159.09 137.774 159.235 137.767 159.371 137.727Z" fill="#455A64"/>
<path d="M245.793 168.157L202.032 168.511C200.614 168.511 199.257 169.191 199.046 170.605L194.262 202.565H171.703C171.522 202.552 171.341 202.577 171.171 202.637C171 202.697 170.844 202.792 170.711 202.915C170.579 203.039 170.473 203.188 170.401 203.354C170.329 203.521 170.292 203.7 170.292 203.881C170.292 204.062 170.329 204.242 170.401 204.408C170.473 204.574 170.579 204.723 170.711 204.847C170.844 204.97 171 205.065 171.171 205.125C171.341 205.185 171.522 205.21 171.703 205.197H243.709L248.63 171.469C248.693 171.059 248.668 170.64 248.554 170.241C248.441 169.842 248.243 169.473 247.973 169.158C247.703 168.843 247.369 168.591 246.992 168.418C246.616 168.245 246.207 168.156 245.793 168.157Z" fill="#E0E0E0"/>
<path d="M245.793 168.157C246.021 168.142 246.25 168.163 246.471 168.218C247.055 168.355 247.582 168.671 247.979 169.122C248.376 169.573 248.622 170.137 248.684 170.734C248.699 171.339 248.647 171.943 248.528 172.536L247.897 176.984C246.933 183.688 245.542 193.338 243.825 205.21V205.326H243.709L173.868 205.36H171.988C171.646 205.395 171.301 205.329 170.997 205.17C170.682 204.998 170.441 204.718 170.318 204.381C170.196 204.046 170.197 203.678 170.322 203.344C170.446 203.01 170.685 202.731 170.997 202.558C171.302 202.408 171.642 202.344 171.981 202.375H194.255L194.085 202.518C195.809 191.073 197.411 180.397 198.836 170.823C198.877 170.181 199.167 169.581 199.643 169.15C200.121 168.749 200.702 168.492 201.32 168.409C201.906 168.355 202.495 168.335 203.084 168.348H204.801L211.384 168.3L223.098 168.225L239.766 168.144H244.225H245.372H245.766H245.372H244.225L239.766 168.212L223.098 168.395L211.391 168.511L204.801 168.572H203.084C202.509 168.558 201.933 168.579 201.36 168.633C200.797 168.71 200.268 168.946 199.833 169.313C199.409 169.699 199.153 170.236 199.121 170.809L194.404 202.518V202.66H172.008C171.729 202.631 171.446 202.68 171.194 202.803C170.962 202.934 170.784 203.141 170.69 203.39C170.596 203.638 170.591 203.912 170.678 204.163C170.768 204.421 170.949 204.636 171.187 204.768C171.44 204.897 171.726 204.947 172.008 204.911H173.888L243.73 204.952L243.601 205.068C245.352 193.208 246.784 183.559 247.774 176.861C248.026 175.188 248.243 173.706 248.453 172.414C248.577 171.831 248.636 171.236 248.63 170.639C248.586 170.148 248.41 169.678 248.121 169.279C247.731 168.726 247.159 168.329 246.505 168.157C246.268 168.137 246.03 168.137 245.793 168.157Z" fill="#263238"/>
<path d="M222.053 189.013C223.567 189.013 224.795 187.783 224.795 186.266C224.795 184.748 223.567 183.518 222.053 183.518C220.539 183.518 219.311 184.748 219.311 186.266C219.311 187.783 220.539 189.013 222.053 189.013Z" fill="white"/>
<path d="M196.033 204.898C196.094 204.898 197.492 196.772 199.148 186.721C200.804 176.671 202.093 168.524 202.032 168.511C201.971 168.497 200.58 176.637 198.924 186.687C197.268 196.738 195.972 204.884 196.033 204.898Z" fill="#263238"/>
<path d="M314.718 146.139C314.718 146.139 314.718 145.731 314.718 144.956C314.718 144.18 314.718 143.031 314.718 141.556C314.718 138.564 314.718 134.184 314.684 128.636C314.684 117.484 314.637 101.544 314.603 82.3956L314.752 82.5452H243.431L243.607 82.3684C243.607 105.59 243.607 127.439 243.607 146.2L243.451 146.044L295.03 146.125L309.581 146.166H313.435H314.426H313.449H309.628L295.084 146.2L243.39 146.282H243.234V146.125C243.234 127.364 243.234 105.516 243.234 82.2936V82.1168H243.417H314.738H314.901V82.28C314.901 101.504 314.847 117.477 314.827 128.649C314.827 134.212 314.827 138.584 314.786 141.569C314.786 143.052 314.786 144.187 314.786 144.969C314.786 145.751 314.718 146.139 314.718 146.139Z" fill="#263238"/>
<path d="M308.909 85.9384H248.046V142.508H308.909V85.9384Z" fill="#5E60CE"/>
<g opacity="0.3">
<path opacity="0.3" d="M284.857 98.6884C284.034 98.7231 283.24 98.9991 282.573 99.4821C281.906 99.9652 281.395 100.634 281.104 101.406C280.813 102.177 280.754 103.017 280.936 103.822C281.117 104.626 281.53 105.36 282.124 105.931C282.718 106.502 283.467 106.886 284.276 107.034C285.086 107.183 285.922 107.09 286.679 106.767C287.436 106.444 288.082 105.905 288.537 105.217C288.991 104.529 289.233 103.722 289.234 102.898C289.223 102.333 289.1 101.777 288.874 101.26C288.648 100.743 288.322 100.275 287.916 99.8844C287.509 99.4935 287.03 99.1867 286.505 98.9815C285.98 98.7763 285.42 98.6767 284.857 98.6884Z" fill="black"/>
<path opacity="0.3" d="M304.185 90.3856L252.769 90.3448C252.824 90.2836 252.213 90.8752 252.471 90.6304V93.84C252.471 94.9076 252.471 95.9684 252.471 97.0292V103.36C252.471 107.515 252.471 111.588 252.471 115.546C252.471 123.468 252.471 130.961 252.471 137.85V138.04H252.722L290.049 137.918L300.48 137.856H303.194H303.873C303.947 137.868 304.023 137.868 304.097 137.856H303.846H303.126H300.344L289.859 137.795L278.369 137.754H304.09C304.09 137.85 304.09 137.911 304.09 137.911C304.102 137.843 304.102 137.774 304.09 137.707C304.09 137.544 304.09 137.34 304.09 137.074C304.09 136.483 304.09 135.653 304.124 134.572C304.124 132.342 304.158 129.132 304.185 125.018C304.219 116.722 304.26 104.904 304.314 90.712V90.474L304.185 90.3856ZM291.738 117.28L283.371 127.16L269.6 108.548L253.014 137.224C253.014 130.499 253.014 123.209 253.014 115.512C253.014 111.554 253.014 107.481 253.014 103.326C253.014 101.245 253.014 99.144 253.014 97.0224V90.9024L303.914 90.8616C303.961 104.883 304.009 116.566 304.036 124.78C304.036 128.901 304.09 132.144 304.104 134.388C304.104 135.483 304.104 136.333 304.104 136.932C304.104 137.21 304.104 137.421 304.104 137.612V137.673L291.738 117.28Z" fill="black"/>
</g>
<path d="M245.263 79.9544H241.524V83.7012H245.263V79.9544Z" fill="#263238"/>
<path d="M315.987 79.9544H312.248V83.7012H315.987V79.9544Z" fill="#263238"/>
<path d="M315.987 143.65H312.248V147.397H315.987V143.65Z" fill="#263238"/>
<path d="M245.786 143.65H242.046V147.397H245.786V143.65Z" fill="#263238"/>
<path d="M245.786 112.173H242.046V115.92H245.786V112.173Z" fill="#263238"/>
<path d="M280.466 144.269H276.726V148.016H280.466V144.269Z" fill="#263238"/>
<path d="M316.591 110.303H312.852V114.05H316.591V110.303Z" fill="#263238"/>
<path d="M280.479 80.2944H276.74V84.0412H280.479V80.2944Z" fill="#263238"/>
<path d="M423.726 255.986C423.658 256.074 423.094 255.734 422.463 255.231C421.832 254.728 421.377 254.245 421.445 254.164C421.513 254.082 422.083 254.422 422.708 254.925C423.332 255.428 423.793 255.904 423.726 255.986Z" fill="#263238"/>
<path d="M440.875 230.309C440.977 227.909 441.045 225.447 440.292 223.169C439.538 220.891 437.781 218.79 435.433 218.3C432.718 217.75 430.003 219.443 428.503 221.734C427.004 224.026 426.467 226.807 426.047 229.514C422.991 248.161 421.865 267.074 422.687 285.953L433.668 287.524C438.466 267.811 440 250.58 440.875 230.309Z" fill="#455A64"/>
<path d="M433.912 218.219C433.902 218.28 433.883 218.339 433.858 218.396L433.682 218.892C433.501 219.345 433.256 219.978 432.949 220.789C432.793 221.204 432.596 221.653 432.426 222.149L431.897 223.815L431.286 225.719C431.105 226.413 430.915 227.14 430.716 227.902C429.8 231.484 429.093 235.117 428.598 238.782C428.008 242.916 427.614 247.493 427.309 252.3C426.752 261.922 426.63 270.66 426.413 276.978C426.298 280.133 426.189 282.69 426.067 284.458C426.013 285.314 425.965 285.988 425.931 286.498C425.931 286.715 425.897 286.885 425.884 287.028C425.895 287.086 425.895 287.146 425.884 287.205C425.876 287.146 425.876 287.087 425.884 287.028C425.884 286.885 425.884 286.708 425.884 286.498C425.884 285.994 425.884 285.321 425.945 284.458C426.019 282.69 426.087 280.133 426.169 276.978C426.345 270.66 426.386 261.922 426.949 252.28C427.255 247.466 427.628 242.882 428.266 238.741C428.782 235.073 429.521 231.439 430.478 227.861C430.682 227.1 430.885 226.372 431.069 225.685C431.252 224.998 431.517 224.373 431.747 223.774L432.317 222.122C432.487 221.612 432.704 221.163 432.867 220.762L433.668 218.885L433.885 218.402C433.882 218.34 433.891 218.277 433.912 218.219Z" fill="#263238"/>
<path d="M434.924 218.226C435.499 218.902 435.958 219.669 436.281 220.497C437.117 222.767 437.457 225.19 437.279 227.603C436.987 233.675 436.444 242.039 435.724 251.274C435.005 260.508 434.197 268.858 433.546 274.89C433.227 277.909 432.942 280.33 432.738 282.03C432.636 282.846 432.548 283.492 432.487 283.975C432.487 284.172 432.433 284.335 432.412 284.478C432.392 284.621 432.412 284.648 432.412 284.641C432.403 284.585 432.403 284.528 432.412 284.471V283.961C432.453 283.485 432.514 282.832 432.589 282.016C432.752 280.289 432.983 277.855 433.268 274.863C433.844 268.824 434.625 260.474 435.304 251.24C435.982 242.005 436.613 233.641 436.973 227.596C437.178 225.213 436.884 222.814 436.111 220.551C435.784 219.743 435.386 218.965 434.924 218.226Z" fill="#263238"/>
<path d="M442.525 246.656C441.806 246.6 441.102 246.416 440.448 246.112C439.749 245.932 439.089 245.625 438.5 245.208C439.92 245.435 441.285 245.927 442.525 246.656Z" fill="#263238"/>
<path d="M443.848 235.457C443.257 235.934 442.589 236.307 441.873 236.558C441.206 236.924 440.484 237.177 439.735 237.306C440.325 236.827 440.993 236.454 441.71 236.205C442.376 235.837 443.099 235.584 443.848 235.457Z" fill="#263238"/>
<path d="M443.169 226.324C442.086 226.509 440.973 226.432 439.925 226.1C440.456 225.942 441.016 225.911 441.561 226.012C442.114 225.99 442.664 226.097 443.169 226.324Z" fill="#263238"/>
<path d="M431.849 220.47C431.761 220.524 431.279 219.926 430.777 219.11C430.275 218.294 429.942 217.62 430.037 217.559C430.132 217.498 430.607 218.103 431.109 218.919C431.469 219.374 431.722 219.904 431.849 220.47Z" fill="#263238"/>
<path d="M428.11 225.991C427.613 226.174 427.079 226.23 426.556 226.154C425.694 226.154 425.001 226.032 425.008 225.923C425.506 225.745 426.039 225.689 426.562 225.76C427.417 225.76 428.116 225.882 428.11 225.991Z" fill="#263238"/>
<path d="M425.429 237.048C424.855 237.024 424.294 236.87 423.787 236.599C422.925 236.246 422.253 235.885 422.294 235.783C422.868 235.807 423.429 235.961 423.936 236.232C424.798 236.579 425.47 236.946 425.429 237.048Z" fill="#263238"/>
<path d="M425.137 246.344C425.137 246.452 424.54 246.67 423.78 246.84C423.02 247.01 422.327 247.051 422.307 246.949C422.287 246.847 422.904 246.622 423.664 246.452C424.425 246.282 425.117 246.235 425.137 246.344Z" fill="#263238"/>
<path d="M423.875 261.548C423.875 261.657 423.196 261.868 422.395 262.018C421.595 262.167 420.868 262.201 420.848 262.092C420.828 261.984 421.493 261.78 422.327 261.63C422.829 261.48 423.36 261.452 423.875 261.548Z" fill="#263238"/>
<path d="M423.04 269.96C423.088 270.055 422.538 270.45 421.805 270.837C421.072 271.225 420.448 271.463 420.386 271.368C420.325 271.272 420.889 270.878 421.622 270.49C422.355 270.103 422.986 269.851 423.04 269.96Z" fill="#263238"/>
<path d="M429.881 279.48C429.786 279.534 429.304 278.868 428.802 277.991C428.442 277.489 428.192 276.917 428.069 276.311C428.164 276.257 428.646 276.923 429.141 277.794C429.503 278.297 429.755 278.872 429.881 279.48Z" fill="#263238"/>
<path d="M431.856 263.643C431.931 263.718 431.394 264.37 430.655 265.091C429.915 265.812 429.257 266.342 429.182 266.261C429.107 266.179 429.643 265.533 430.383 264.812C431.123 264.092 431.775 263.561 431.856 263.643Z" fill="#263238"/>
<path d="M431.415 255.333C431.34 255.408 430.838 254.993 430.302 254.415C429.766 253.837 429.399 253.314 429.481 253.239C429.562 253.164 430.058 253.572 430.594 254.15C431.13 254.728 431.496 255.258 431.415 255.333Z" fill="#263238"/>
<path d="M432.772 244.718C432.854 244.786 432.406 245.398 431.775 246.126C431.143 246.854 430.566 247.35 430.485 247.275C430.404 247.2 430.852 246.595 431.483 245.868C432.114 245.14 432.691 244.644 432.772 244.718Z" fill="#263238"/>
<path d="M433.539 237.014C433.464 237.089 432.86 236.599 432.141 235.912C431.422 235.226 430.947 234.614 431.021 234.552C431.096 234.491 431.7 234.967 432.419 235.647C433.139 236.327 433.614 236.939 433.539 237.014Z" fill="#263238"/>
<path d="M435.025 226.596C435.12 226.658 434.801 227.351 434.347 228.16C433.892 228.97 433.403 229.575 433.308 229.52C433.213 229.466 433.532 228.772 433.987 227.963C434.442 227.154 434.944 226.542 435.025 226.596Z" fill="#263238"/>
<path d="M437.862 216.92C437.778 217.482 437.567 218.016 437.245 218.484C436.803 219.293 436.376 219.905 436.281 219.844C436.186 219.783 436.464 219.096 436.898 218.28C437.333 217.464 437.74 216.92 437.862 216.92Z" fill="#263238"/>
<path d="M441.065 221.333C441.113 221.428 440.672 221.741 440.088 222.013C439.505 222.285 438.982 222.442 438.934 222.346C438.887 222.251 439.328 221.938 439.919 221.666C440.509 221.394 441.018 221.238 441.065 221.333Z" fill="#263238"/>
<path d="M441.133 255.993C439.646 255.882 438.238 255.279 437.129 254.279C437.834 254.486 438.516 254.764 439.165 255.109C439.85 255.336 440.509 255.632 441.133 255.993Z" fill="#263238"/>
<path d="M439.83 263.33C439.83 263.439 439.192 263.656 438.358 263.813C437.523 263.969 436.831 264.024 436.81 263.915C436.79 263.806 437.448 263.595 438.283 263.432C438.783 263.273 439.314 263.238 439.83 263.33Z" fill="#263238"/>
<path d="M438.222 275.917C437.546 275.584 436.969 275.077 436.552 274.448C436.034 273.899 435.673 273.22 435.507 272.483C436.006 273.018 436.46 273.594 436.865 274.203C437.365 274.734 437.819 275.308 438.222 275.917Z" fill="#263238"/>
<path d="M420.604 281.676C420.529 281.588 420.977 281.092 421.595 280.561C422.212 280.031 422.775 279.67 422.843 279.752C422.911 279.834 422.47 280.33 421.852 280.86C421.235 281.391 420.672 281.758 420.604 281.676Z" fill="#263238"/>
<path d="M415.534 254.204C414.855 251.967 413.498 249.37 411.143 249.336C410.449 249.375 409.778 249.6 409.2 249.988C408.623 250.375 408.159 250.911 407.858 251.539C407.217 252.785 406.911 254.177 406.969 255.578C407.257 265.513 408.948 275.358 411.991 284.818H420.556C420.45 274.417 418.756 264.093 415.534 254.204Z" fill="#455A64"/>
<path d="M400.054 240.149C398.859 235.355 395.303 232.764 391.143 232.526C387.363 233.206 385.897 236.919 385.442 240.747C384.987 244.576 386.182 248.37 387.349 252.035C391.1 263.822 394.855 275.593 398.615 287.348L409.236 286.185C405.897 270.416 403.963 255.796 400.054 240.149Z" fill="#455A64"/>
<path d="M411.143 249.336C410.869 249.719 410.626 250.124 410.417 250.546C409.982 251.76 409.845 253.062 410.016 254.34C410.186 255.972 410.369 257.931 410.641 260.086C410.912 262.242 411.32 264.602 411.788 267.063C412.758 271.993 413.824 276.413 414.543 279.636C414.889 281.241 415.154 282.554 415.324 283.458C415.392 283.873 415.453 284.22 415.5 284.505C415.532 284.625 415.545 284.749 415.541 284.872C415.483 284.762 415.444 284.642 415.425 284.519C415.358 284.24 415.276 283.9 415.174 283.492C414.944 282.533 414.638 281.255 414.272 279.698C413.512 276.495 412.378 272.082 411.408 267.138C410.926 264.67 410.546 262.296 410.288 260.127C410.145 259.046 410.057 258.012 409.969 257.047C409.881 256.081 409.786 255.184 409.745 254.361C409.589 253.044 409.773 251.709 410.281 250.485C410.485 250.045 410.779 249.654 411.143 249.336Z" fill="#263238"/>
<path d="M391.299 232.22C390.825 232.764 390.394 233.344 390.009 233.954C389.03 235.657 388.475 237.573 388.394 239.537C388.231 242.019 388.781 244.977 389.711 248.125C390.641 251.274 391.672 254.789 392.744 258.441C394.869 265.758 396.816 272.374 398.174 277.216C398.852 279.589 399.389 281.527 399.782 282.914C399.952 283.56 400.094 284.077 400.196 284.471C400.256 284.65 400.297 284.835 400.318 285.022C400.235 284.853 400.169 284.675 400.122 284.492L399.633 282.962C399.212 281.602 398.628 279.657 397.902 277.29L392.344 258.556L389.365 248.2C388.448 245.018 387.912 242.019 388.116 239.489C388.223 237.489 388.83 235.549 389.88 233.845C390.262 233.23 390.741 232.681 391.299 232.22Z" fill="#263238"/>
<path d="M406.942 285.042C406.846 284.881 406.766 284.71 406.705 284.532C406.562 284.186 406.338 283.689 406.094 283.03C405.592 281.717 404.94 279.786 404.268 277.365C403.596 274.944 402.911 272.02 402.28 268.756C401.649 265.492 400.983 261.909 400.244 258.142C399.504 254.374 398.676 250.832 397.719 247.663C396.891 244.849 395.855 242.101 394.618 239.442C393.775 237.653 392.816 235.922 391.747 234.26C391.38 233.662 391.068 233.226 390.844 232.9C390.735 232.745 390.635 232.584 390.546 232.417C390.681 232.551 390.803 232.696 390.912 232.852C391.129 233.145 391.482 233.566 391.869 234.151C392.997 235.788 393.997 237.509 394.862 239.299C396.147 241.956 397.218 244.712 398.065 247.54C399.097 250.996 399.951 254.503 400.624 258.046C401.302 261.814 401.981 265.397 402.599 268.668C403.216 271.939 403.861 274.849 404.499 277.27C405.137 279.691 405.741 281.636 406.209 282.955C406.426 283.635 406.623 284.131 406.745 284.478C406.832 284.658 406.898 284.847 406.942 285.042Z" fill="#263238"/>
<path d="M387.519 250.274C387.519 250.383 386.969 250.614 386.222 250.791C385.476 250.968 384.865 251.029 384.865 250.927C384.865 250.825 385.422 250.587 386.161 250.41C386.901 250.233 387.519 250.172 387.519 250.274Z" fill="#263238"/>
<path d="M386.412 242.991C385.224 243.206 384.011 243.254 382.809 243.134C383.969 242.729 385.224 242.68 386.412 242.991Z" fill="#263238"/>
<path d="M387.614 236.341C387.539 236.422 386.935 236.048 386.317 235.504C385.7 234.96 385.211 234.444 385.279 234.362C385.347 234.28 385.958 234.654 386.575 235.198C387.193 235.742 387.682 236.259 387.614 236.341Z" fill="#263238"/>
<path d="M390.859 230.187C390.968 230.187 390.941 230.731 390.92 231.356C390.9 231.982 390.92 232.499 390.791 232.519C390.661 232.54 390.512 232.016 390.532 231.343C390.552 230.67 390.757 230.16 390.859 230.187Z" fill="#263238"/>
<path d="M397.495 233.084C397.583 233.145 397.325 233.675 396.918 234.26C396.511 234.845 396.104 235.273 396.016 235.205C395.927 235.137 396.185 234.62 396.599 234.036C397.013 233.451 397.407 233.022 397.495 233.084Z" fill="#263238"/>
<path d="M401.805 240.584C401.845 240.686 401.296 241.006 400.576 241.298C399.857 241.59 399.219 241.754 399.219 241.652C399.219 241.55 399.735 241.23 400.454 240.938C401.173 240.645 401.771 240.482 401.805 240.584Z" fill="#263238"/>
<path d="M404.417 248.302C403.938 248.707 403.35 248.963 402.728 249.036C402.134 249.236 401.495 249.26 400.888 249.104C401.451 248.875 402.043 248.724 402.646 248.656C403.217 248.456 403.814 248.337 404.417 248.302Z" fill="#263238"/>
<path d="M392.419 246.106C392.317 246.106 392.419 245.541 392.588 244.916C392.758 244.29 393.023 243.814 393.131 243.841C393.24 243.868 393.131 244.412 392.962 245.038C392.792 245.664 392.52 246.16 392.419 246.106Z" fill="#263238"/>
<path d="M394.095 255.796C394.128 255.23 394.293 254.681 394.577 254.191C394.943 253.348 395.317 252.702 395.418 252.742C395.38 253.307 395.216 253.855 394.936 254.347C394.57 255.19 394.197 255.836 394.095 255.796Z" fill="#263238"/>
<path d="M389.962 258.448C389.921 258.55 389.243 258.359 388.428 258.108C387.614 257.856 386.949 257.618 386.976 257.509C387.509 257.436 388.052 257.514 388.543 257.734C389.378 257.992 390.003 258.346 389.962 258.448Z" fill="#263238"/>
<path d="M392.344 266.342C392.405 266.431 391.95 266.866 391.326 267.315C390.702 267.764 390.138 268.049 390.077 267.961C390.016 267.872 390.471 267.437 391.095 266.995C391.72 266.553 392.269 266.254 392.344 266.342Z" fill="#263238"/>
<path d="M394.258 274.217C394.258 274.319 393.715 274.55 392.996 274.727C392.276 274.904 391.638 274.958 391.638 274.856C391.638 274.754 392.174 274.523 392.894 274.346C393.613 274.169 394.231 274.108 394.258 274.217Z" fill="#263238"/>
<path d="M404.628 254.878C404.682 254.966 404.2 255.354 403.501 255.619C402.802 255.884 402.178 255.911 402.144 255.809C402.11 255.707 402.673 255.503 403.338 255.252C404.003 255 404.574 254.782 404.628 254.878Z" fill="#263238"/>
<path d="M406.114 267.124C406.067 267.226 405.49 267.05 404.831 266.737C404.173 266.424 403.664 266.091 403.712 265.996C403.759 265.9 404.329 266.07 404.994 266.383C405.659 266.696 406.155 267.029 406.114 267.124Z" fill="#263238"/>
<path d="M408.727 275.89C408.135 275.865 407.556 275.709 407.03 275.434C406.135 275.087 405.442 274.72 405.483 274.618C406.075 274.644 406.654 274.8 407.18 275.074C408.076 275.4 408.768 275.788 408.727 275.89Z" fill="#263238"/>
<path d="M394.672 282.758C394.617 282.662 395.35 282.193 396.124 281.554C396.898 280.915 397.556 280.35 397.638 280.425C397.719 280.5 397.21 281.2 396.368 281.86C395.896 282.31 395.309 282.621 394.672 282.758Z" fill="#263238"/>
<path d="M401.594 278.304C401.479 278.304 401.33 277.726 401.065 277.039C400.8 276.352 400.515 275.815 400.61 275.754C400.705 275.692 401.146 276.162 401.431 276.903C401.716 277.644 401.696 278.29 401.594 278.304Z" fill="#263238"/>
<path d="M399.735 267.757C399.674 267.845 399.226 267.634 398.737 267.281C398.248 266.927 397.909 266.601 397.97 266.485C398.031 266.37 398.479 266.614 398.968 266.961C399.456 267.308 399.823 267.668 399.735 267.757Z" fill="#263238"/>
<path d="M415.88 251.24C415.948 251.328 415.514 251.756 414.91 252.198C414.306 252.64 413.77 252.933 413.708 252.844C413.647 252.756 414.075 252.328 414.679 251.886C415.283 251.444 415.819 251.151 415.88 251.24Z" fill="#263238"/>
<path d="M418.31 257.897C418.31 257.999 417.631 258.142 416.796 258.053C415.962 257.965 415.317 257.672 415.351 257.577C415.385 257.482 416.029 257.577 416.837 257.659C417.645 257.74 418.303 257.781 418.31 257.897Z" fill="#263238"/>
<path d="M407.879 259.386C407.879 259.488 407.275 259.719 406.46 259.774C405.646 259.828 404.988 259.685 404.994 259.583C405.001 259.481 405.673 259.434 406.433 259.379C407.193 259.325 407.879 259.277 407.879 259.386Z" fill="#263238"/>
<path d="M408.761 253.096C408.761 253.198 408.116 253.218 407.404 252.892C406.691 252.566 406.297 252.076 406.372 252.001C406.447 251.926 406.929 252.246 407.566 252.538C408.204 252.831 408.775 252.96 408.761 253.096Z" fill="#263238"/>
<path d="M419.206 265.044C419.151 265.132 418.527 264.826 417.753 264.364C416.98 263.901 416.443 263.439 416.498 263.344C416.552 263.248 417.176 263.561 417.957 264.024C418.737 264.486 419.267 264.948 419.206 265.044Z" fill="#263238"/>
<path d="M444.696 283.723H388.964V293.617H444.696V283.723Z" fill="#5E60CE"/>
<path d="M393.131 291.652L399.904 321.232H433.118L440.536 291.652H393.131Z" fill="#5E60CE"/>
<path d="M444.662 293.631C444.662 293.74 432.094 293.828 416.593 293.828C401.092 293.828 388.516 293.74 388.516 293.631C388.516 293.522 401.085 293.434 416.593 293.434C432.1 293.434 444.662 293.522 444.662 293.631Z" fill="#263238"/>
<path d="M413.674 259.604C413.579 259.658 413.199 259.216 412.819 258.611C412.439 258.006 412.215 257.468 412.304 257.407C412.392 257.346 412.779 257.795 413.152 258.4C413.525 259.005 413.763 259.549 413.674 259.604Z" fill="#263238"/>
<path d="M413.695 267.566C413.593 267.532 413.695 266.886 413.987 266.064C414.279 265.241 414.543 264.649 414.665 264.704C414.788 264.758 414.665 265.384 414.38 266.206C414.095 267.029 413.797 267.6 413.695 267.566Z" fill="#263238"/>
<path d="M416.416 275.924C416.315 275.971 415.901 275.305 415.487 274.434C415.17 273.93 414.973 273.36 414.91 272.768C415.32 273.197 415.636 273.707 415.839 274.264C416.148 274.77 416.345 275.336 416.416 275.924Z" fill="#263238"/>
<path d="M410.525 282.649C410.444 282.581 410.777 282.064 411.272 281.493C411.767 280.922 412.229 280.527 412.31 280.595C412.392 280.663 412.059 281.187 411.564 281.751C411.068 282.316 410.593 282.724 410.525 282.649Z" fill="#263238"/>
<path d="M409.29 270.443C409.29 270.545 408.734 270.545 408.096 270.443C407.458 270.341 406.949 270.15 406.963 270.042C406.976 269.933 407.519 269.94 408.164 270.042C408.808 270.144 409.311 270.334 409.29 270.443Z" fill="#263238"/>
</svg>
